<svg width="102" height="97" viewBox="0 0 102 97" fill="none" xmlns="http://www.w3.org/2000/svg">
<path d="M87.8539 50.226C87.8539 57.1638 82.2427 62.7881 75.3184 62.7881H29.9584C20.7539 62.7881 13.291 55.3104 13.291 46.0827C13.291 36.8577 20.7539 29.3774 29.9584 29.3774C30.7839 29.3774 31.5953 29.4409 32.3909 29.5565C36.1549 22.0647 43.8959 16.9238 52.8382 16.9238C63.6585 16.9238 72.7231 24.4535 75.1045 34.5695C75.3421 35.5795 75.5138 36.6142 75.6123 37.6683V37.671C82.3976 37.8262 87.8539 43.387 87.8539 50.226Z" fill="#AAAEB6" fill-opacity="0.15"/>
<path d="M87.8539 50.226C87.8539 57.1638 82.2427 62.7881 75.3184 62.7881H29.9584C20.7539 62.7881 13.291 55.3104 13.291 46.0827C13.291 36.8577 20.7539 29.3774 29.9584 29.3774C30.7839 29.3774 31.5953 29.4409 32.3909 29.5565C36.1549 22.0647 43.8959 16.9238 52.8382 16.9238C63.6585 16.9238 72.7231 24.4535 75.1045 34.5695C75.3421 35.5795 75.5138 36.6142 75.6123 37.6683V37.671C82.3976 37.8262 87.8539 43.387 87.8539 50.226Z" fill="url(#paint0_linear_568_23346)" fill-opacity="0.25"/>
<path fill-rule="evenodd" clip-rule="evenodd" d="M33.1551 31.0226L32.1981 30.8836C31.4619 30.7767 30.715 30.7185 29.9584 30.7185C21.4974 30.7185 14.6321 37.5954 14.6321 46.0827C14.6321 54.5726 21.4973 61.447 29.9584 61.447H75.3184C81.4993 61.447 86.5129 56.4259 86.5129 50.226C86.5129 44.1151 81.6378 39.1502 75.5816 39.0117L74.2713 38.9817V37.7319C74.1777 36.7616 74.0183 35.8083 73.7991 34.8766C71.5565 25.3506 63.0201 18.2649 52.8382 18.2649C44.4237 18.2649 37.1351 23.101 33.5892 30.1585L33.1551 31.0226ZM75.1045 34.5695C72.7231 24.4535 63.6585 16.9238 52.8382 16.9238C43.8959 16.9238 36.1549 22.0647 32.3909 29.5565C31.5953 29.4409 30.7839 29.3774 29.9584 29.3774C20.7539 29.3774 13.291 36.8577 13.291 46.0827C13.291 55.3104 20.7539 62.7881 29.9584 62.7881H75.3184C82.2427 62.7881 87.8539 57.1638 87.8539 50.226C87.8539 43.387 82.3976 37.8262 75.6123 37.671V37.6683C75.5138 36.6142 75.3421 35.5795 75.1045 34.5695Z" fill="url(#paint1_linear_568_23346)"/>
<defs>
<linearGradient id="paint0_linear_568_23346" x1="29.7175" y1="29.7617" x2="83.8876" y2="62.5349" gradientUnits="userSpaceOnUse">
<stop stop-color="white" stop-opacity="0.9"/>
<stop offset="0.948981" stop-color="white" stop-opacity="0.5"/>
</linearGradient>
<linearGradient id="paint1_linear_568_23346" x1="18.5211" y1="23.8973" x2="50.5725" y2="57.9603" gradientUnits="userSpaceOnUse">
<stop stop-color="#D9E6EA" stop-opacity="0.55"/>
<stop offset="1" stop-color="white" stop-opacity="0.05"/>
</linearGradient>
</defs>
</svg>
