<svg width="100" height="100" viewBox="0 0 100 100" fill="none" xmlns="http://www.w3.org/2000/svg">
<circle cx="31.9316" cy="33.25" r="20.25" fill="#FFC34D"/>
<path d="M87.8539 56.226C87.8539 63.1638 82.2427 68.7881 75.3184 68.7881H29.9584C20.7539 68.7881 13.291 61.3104 13.291 52.0827C13.291 42.8577 20.7539 35.3774 29.9584 35.3774C30.7839 35.3774 31.5953 35.4409 32.3909 35.5565C36.1549 28.0647 43.8959 22.9238 52.8382 22.9238C63.6585 22.9238 72.7231 30.4535 75.1045 40.5695C75.3421 41.5795 75.5138 42.6142 75.6123 43.6683V43.671C82.3976 43.8262 87.8539 49.387 87.8539 56.226Z" fill="url(#paint0_linear_512_28523)" fill-opacity="0.8"/>
<path d="M87.8539 56.226C87.8539 63.1638 82.2427 68.7881 75.3184 68.7881H29.9584C20.7539 68.7881 13.291 61.3104 13.291 52.0827C13.291 42.8577 20.7539 35.3774 29.9584 35.3774C30.7839 35.3774 31.5953 35.4409 32.3909 35.5565C36.1549 28.0647 43.8959 22.9238 52.8382 22.9238C63.6585 22.9238 72.7231 30.4535 75.1045 40.5695C75.3421 41.5795 75.5138 42.6142 75.6123 43.6683V43.671C82.3976 43.8262 87.8539 49.387 87.8539 56.226Z" fill="url(#paint1_linear_512_28523)" fill-opacity="0.55"/>
<path fill-rule="evenodd" clip-rule="evenodd" d="M33.1551 37.0226L32.1981 36.8836C31.4619 36.7767 30.715 36.7185 29.9584 36.7185C21.4974 36.7185 14.6321 43.5954 14.6321 52.0827C14.6321 60.5726 21.4973 67.447 29.9584 67.447H75.3184C81.4993 67.447 86.5129 62.4259 86.5129 56.226C86.5129 50.1151 81.6378 45.1502 75.5816 45.0117L74.2713 44.9817V43.7319C74.1777 42.7616 74.0183 41.8083 73.7991 40.8766C71.5565 31.3506 63.0201 24.2649 52.8382 24.2649C44.4237 24.2649 37.1351 29.101 33.5892 36.1585L33.1551 37.0226ZM75.1045 40.5695C72.7231 30.4535 63.6585 22.9238 52.8382 22.9238C43.8959 22.9238 36.1549 28.0647 32.3909 35.5565C31.5953 35.4409 30.7839 35.3774 29.9584 35.3774C20.7539 35.3774 13.291 42.8577 13.291 52.0827C13.291 61.3104 20.7539 68.7881 29.9584 68.7881H75.3184C82.2427 68.7881 87.8539 63.1638 87.8539 56.226C87.8539 49.387 82.3976 43.8262 75.6123 43.671V43.6683C75.5138 42.6142 75.3421 41.5795 75.1045 40.5695Z" fill="url(#paint2_linear_512_28523)"/>
<path d="M78.4955 79.37C78.018 78.5191 76.9617 78.2274 76.1352 78.7181V78.7181C74.5721 79.6476 72.5918 78.5211 72.5918 76.7025V76.612C72.5918 75.6297 71.8178 74.8328 70.8637 74.8328C69.9097 74.8328 69.1357 75.6297 69.1357 76.612V76.7025C69.1357 78.5211 67.1554 79.6476 65.5923 78.7181V78.7181C64.7658 78.2274 63.7094 78.5191 63.232 79.37C62.7545 80.2209 63.0378 81.3086 63.8642 81.8003V81.8003C65.4619 82.7498 65.4619 85.0629 63.8642 86.0124V86.0124C63.0378 86.5041 62.7545 87.5918 63.232 88.4427C63.552 89.0135 64.1327 89.3332 64.73 89.3332C65.023 89.3332 65.3203 89.2558 65.5923 89.0946V89.0946C67.1554 88.1651 69.1357 89.2916 69.1357 91.1102V91.2007C69.1357 92.183 69.9097 92.9799 70.8637 92.9799C71.8178 92.9799 72.5918 92.183 72.5918 91.2007V91.1106C72.5918 89.292 74.5719 88.1654 76.1352 89.0946V89.0946C76.4072 89.2567 76.7045 89.3332 76.9975 89.3332C77.5948 89.3332 78.1755 89.0135 78.4955 88.4436C78.9721 87.5927 78.6897 86.5041 77.8633 86.0133V86.0133C76.2656 85.0634 76.2654 82.7499 77.8633 81.8003V81.8003C78.6897 81.3086 78.973 80.2209 78.4955 79.37Z" fill="#818494"/>
<path d="M50.9361 69.0001C47.853 72.0831 44 73.6194 44 78.7744C44 78.9587 44.0038 78.7756 44.0114 78.9587C44.3493 87.7142 57.5217 87.7142 57.8608 78.9587C57.8672 78.7756 57.871 78.9587 57.871 78.7744C57.871 73.6194 53.676 71.74 50.9361 69.0001Z" fill="#6CA7FF"/>
<path d="M30.9361 74.5999C27.853 77.683 24 79.2192 24 84.3742C24 84.5585 24.0038 84.3755 24.0114 84.5585C24.3493 93.3141 37.5217 93.3141 37.8608 84.5585C37.8672 84.3755 37.871 84.5585 37.871 84.3742C37.871 79.2192 33.676 77.3398 30.9361 74.5999Z" fill="#6CA7FF"/>
<defs>
<linearGradient id="paint0_linear_512_28523" x1="87.854" y1="73.9908" x2="13.1298" y2="36.1316" gradientUnits="userSpaceOnUse">
<stop stop-color="#384153" stop-opacity="0.5"/>
<stop offset="1" stop-color="#EFF7FF"/>
</linearGradient>
<linearGradient id="paint1_linear_512_28523" x1="29.7175" y1="35.7617" x2="83.8876" y2="68.5349" gradientUnits="userSpaceOnUse">
<stop stop-color="white" stop-opacity="0.9"/>
<stop offset="1" stop-color="white" stop-opacity="0.51"/>
</linearGradient>
<linearGradient id="paint2_linear_512_28523" x1="18.5211" y1="29.8973" x2="50.5725" y2="63.9603" gradientUnits="userSpaceOnUse">
<stop stop-color="#7B91A7"/>
<stop offset="1" stop-color="white" stop-opacity="0"/>
</linearGradient>
</defs>
</svg>
