<svg width="100" height="100" viewBox="0 0 100 100" fill="none" xmlns="http://www.w3.org/2000/svg">
<path d="M85.0732 49.7981C85.0732 56.6672 79.5175 62.2358 72.6618 62.2358H27.7509C18.6375 62.2358 11.2485 54.8322 11.2485 45.6959C11.2485 36.5622 18.6375 29.156 27.7509 29.156C28.5683 29.156 29.3716 29.2188 30.1593 29.3333C33.8861 21.9157 41.5504 16.8257 50.4042 16.8257C61.1173 16.8257 70.0922 24.2808 72.45 34.2966C72.6853 35.2966 72.8552 36.3211 72.9528 37.3648V37.3674C79.6709 37.5211 85.0732 43.0269 85.0732 49.7981Z" fill="url(#paint0_linear_512_27811)" fill-opacity="0.8"/>
<path d="M85.0732 49.7981C85.0732 56.6672 79.5175 62.2358 72.6618 62.2358H27.7509C18.6375 62.2358 11.2485 54.8322 11.2485 45.6959C11.2485 36.5622 18.6375 29.156 27.7509 29.156C28.5683 29.156 29.3716 29.2188 30.1593 29.3333C33.8861 21.9157 41.5504 16.8257 50.4042 16.8257C61.1173 16.8257 70.0922 24.2808 72.45 34.2966C72.6853 35.2966 72.8552 36.3211 72.9528 37.3648V37.3674C79.6709 37.5211 85.0732 43.0269 85.0732 49.7981Z" fill="url(#paint1_linear_512_27811)" fill-opacity="0.55"/>
<path fill-rule="evenodd" clip-rule="evenodd" d="M30.916 30.7849L29.9685 30.6472C29.2395 30.5414 28.5 30.4837 27.7509 30.4837C19.3737 30.4837 12.5763 37.2926 12.5763 45.6959C12.5763 54.1017 19.3736 60.908 27.7509 60.908H72.6618C78.7815 60.908 83.7454 55.9366 83.7454 49.7981C83.7454 43.7478 78.9186 38.832 72.9224 38.6948L71.625 38.6652V37.4277C71.5324 36.4671 71.3746 35.5232 71.1575 34.6007C68.9371 25.169 60.4852 18.1535 50.4042 18.1535C42.073 18.1535 34.8565 22.9417 31.3458 29.9294L30.916 30.7849ZM72.45 34.2966C70.0922 24.2808 61.1173 16.8257 50.4042 16.8257C41.5504 16.8257 33.8861 21.9157 30.1593 29.3333C29.3716 29.2188 28.5683 29.156 27.7509 29.156C18.6375 29.156 11.2485 36.5622 11.2485 45.6959C11.2485 54.8322 18.6375 62.2358 27.7509 62.2358H72.6618C79.5175 62.2358 85.0732 56.6672 85.0732 49.7981C85.0732 43.0269 79.6709 37.5211 72.9528 37.3674V37.3648C72.8552 36.3211 72.6853 35.2966 72.45 34.2966Z" fill="url(#paint2_linear_512_27811)"/>
<path d="M39.9586 62.0247C37.4453 64.538 34.3042 65.7904 34.3042 69.9928C34.3042 70.1431 34.3073 69.9939 34.3135 70.1431C34.5889 77.2808 45.3273 77.2808 45.6038 70.1431C45.6089 69.9939 45.612 70.1431 45.612 69.9928C45.612 65.7904 42.1923 64.2583 39.9586 62.0247Z" fill="#6CA7FF"/>
<path d="M23.6544 68.5215C21.1411 71.0349 18 72.2872 18 76.4897C18 76.6399 18.0031 76.4907 18.0093 76.6399C18.2847 83.7776 29.0231 83.7776 29.2996 76.6399C29.3047 76.4907 29.3078 76.6399 29.3078 76.4897C29.3078 72.2872 25.8881 70.7551 23.6544 68.5215Z" fill="#6CA7FF"/>
<path d="M72.3903 62.0247C69.8769 64.538 66.7358 65.7904 66.7358 69.9928C66.7358 70.1431 66.7389 69.9939 66.7451 70.1431C67.0206 77.2808 77.7589 77.2808 78.0354 70.1431C78.0406 69.9939 78.0437 70.1431 78.0437 69.9928C78.0437 65.7904 74.6239 64.2583 72.3903 62.0247Z" fill="#6CA7FF"/>
<path d="M56.2631 68.7954C53.7497 71.3088 50.6086 72.5612 50.6086 76.7636C50.6086 76.9138 50.6117 76.7646 50.6179 76.9138C50.8934 84.0515 61.6317 84.0515 61.9082 76.9138C61.9134 76.7646 61.9165 76.9138 61.9165 76.7636C61.9165 72.5612 58.4967 71.0291 56.2631 68.7954Z" fill="#6CA7FF"/>
<defs>
<linearGradient id="paint0_linear_512_27811" x1="85.0732" y1="67.3871" x2="11.0889" y2="29.9027" gradientUnits="userSpaceOnUse">
<stop stop-color="#384153" stop-opacity="0.5"/>
<stop offset="1" stop-color="#EFF7FF"/>
</linearGradient>
<linearGradient id="paint1_linear_512_27811" x1="27.5124" y1="29.5364" x2="81.1462" y2="61.9851" gradientUnits="userSpaceOnUse">
<stop stop-color="white" stop-opacity="0.9"/>
<stop offset="1" stop-color="white" stop-opacity="0.51"/>
</linearGradient>
<linearGradient id="paint2_linear_512_27811" x1="16.4269" y1="23.7302" x2="48.1609" y2="57.4558" gradientUnits="userSpaceOnUse">
<stop stop-color="#D9E6EA" stop-opacity="0.55"/>
<stop offset="1" stop-color="white" stop-opacity="0.05"/>
</linearGradient>
</defs>
</svg>
