<svg width="100" height="100" viewBox="0 0 100 100" fill="none" xmlns="http://www.w3.org/2000/svg">
<path d="M90.9143 56.214C90.9143 62.9893 84.9429 68.482 77.5743 68.482H29.3034C19.5082 68.482 11.5664 61.1794 11.5664 52.1677C11.5664 43.1586 19.5082 35.8534 29.3034 35.8534C30.1819 35.8534 31.0454 35.9155 31.892 36.0283C35.8976 28.712 44.1353 23.6914 53.6514 23.6914C65.1661 23.6914 74.8124 31.0448 77.3467 40.924C77.5996 41.9103 77.7822 42.9208 77.8871 43.9503V43.9529C85.1078 44.1045 90.9143 49.5351 90.9143 56.214Z" fill="url(#paint0_linear_512_27946)" fill-opacity="0.8"/>
<path d="M90.9143 56.214C90.9143 62.9893 84.9429 68.482 77.5743 68.482H29.3034C19.5082 68.482 11.5664 61.1794 11.5664 52.1677C11.5664 43.1586 19.5082 35.8534 29.3034 35.8534C30.1819 35.8534 31.0454 35.9155 31.892 36.0283C35.8976 28.712 44.1353 23.6914 53.6514 23.6914C65.1661 23.6914 74.8124 31.0448 77.3467 40.924C77.5996 41.9103 77.7822 42.9208 77.8871 43.9503V43.9529C85.1078 44.1045 90.9143 49.5351 90.9143 56.214Z" fill="url(#paint1_linear_512_27946)" fill-opacity="0.55"/>
<path fill-rule="evenodd" clip-rule="evenodd" d="M32.7052 37.4601L31.6869 37.3244C30.9033 37.2199 30.1085 37.1631 29.3034 37.1631C20.2995 37.1631 12.9935 43.8791 12.9935 52.1677C12.9935 60.4588 20.2993 67.1723 29.3034 67.1723H77.5743C84.1518 67.1723 89.4871 62.2687 89.4871 56.214C89.4871 50.2462 84.2992 45.3975 77.8544 45.2622L76.4599 45.2329V44.0123C76.3604 43.0648 76.1908 42.1338 75.9575 41.2239C73.5709 31.9209 64.4867 25.0011 53.6514 25.0011C44.697 25.0011 36.9406 29.724 33.1672 36.6163L32.7052 37.4601ZM77.3467 40.924C74.8124 31.0448 65.1661 23.6914 53.6514 23.6914C44.1353 23.6914 35.8976 28.712 31.892 36.0283C31.0454 35.9155 30.1819 35.8534 29.3034 35.8534C19.5082 35.8534 11.5664 43.1586 11.5664 52.1677C11.5664 61.1794 19.5082 68.482 29.3034 68.482H77.5743C84.9429 68.482 90.9143 62.9893 90.9143 56.214C90.9143 49.5351 85.1078 44.1045 77.8871 43.9529V43.9503C77.7822 42.9208 77.5996 41.9103 77.3467 40.924Z" fill="url(#paint2_linear_512_27946)"/>
<path d="M42.9586 66C40.4453 68.5134 37.3042 69.7658 37.3042 73.9682C37.3042 74.1184 37.3073 73.9692 37.3135 74.1184C37.5889 81.2561 48.3273 81.2561 48.6038 74.1184C48.6089 73.9692 48.612 74.1184 48.612 73.9682C48.612 69.7658 45.1923 68.2336 42.9586 66Z" fill="#AAAEB6"/>
<path d="M26.6544 72.5215C24.1411 75.0349 21 76.2872 21 80.4897C21 80.6399 21.0031 80.4907 21.0093 80.6399C21.2847 87.7776 32.0231 87.7776 32.2996 80.6399C32.3047 80.4907 32.3078 80.6399 32.3078 80.4897C32.3078 76.2872 28.8881 74.7551 26.6544 72.5215Z" fill="#AAAEB6"/>
<path d="M75.3903 66C72.8769 68.5134 69.7358 69.7658 69.7358 73.9682C69.7358 74.1184 69.7389 73.9692 69.7451 74.1184C70.0206 81.2561 80.7589 81.2561 81.0354 74.1184C81.0406 73.9692 81.0437 74.1184 81.0437 73.9682C81.0437 69.7658 77.6239 68.2336 75.3903 66Z" fill="#AAAEB6"/>
<path d="M59.2631 72.5215C56.7497 75.0349 53.6086 76.2872 53.6086 80.4897C53.6086 80.6399 53.6117 80.4907 53.6179 80.6399C53.8934 87.7776 64.6317 87.7776 64.9082 80.6399C64.9134 80.4907 64.9165 80.6399 64.9165 80.4897C64.9165 76.2872 61.4967 74.7551 59.2631 72.5215Z" fill="#AAAEB6"/>
<defs>
<linearGradient id="paint0_linear_512_27946" x1="90.9143" y1="73.5629" x2="14.3267" y2="31.2796" gradientUnits="userSpaceOnUse">
<stop stop-color="#384153" stop-opacity="0.5"/>
<stop offset="1" stop-color="#EFF7FF"/>
</linearGradient>
<linearGradient id="paint1_linear_512_27946" x1="29.047" y1="36.2287" x2="83.937" y2="72.4157" gradientUnits="userSpaceOnUse">
<stop stop-color="white" stop-opacity="0.9"/>
<stop offset="1" stop-color="white" stop-opacity="0.51"/>
</linearGradient>
<linearGradient id="paint2_linear_512_27946" x1="17.1322" y1="30.5017" x2="48.1565" y2="66.4301" gradientUnits="userSpaceOnUse">
<stop stop-color="#D9E6EA" stop-opacity="0.55"/>
<stop offset="1" stop-color="white" stop-opacity="0.05"/>
</linearGradient>
</defs>
</svg>
