<svg width="100" height="100" viewBox="0 0 100 100" fill="none" xmlns="http://www.w3.org/2000/svg">
<path d="M87.8539 55.226C87.8539 62.1638 82.2427 67.7881 75.3184 67.7881H29.9584C20.7539 67.7881 13.291 60.3104 13.291 51.0827C13.291 41.8577 20.7539 34.3774 29.9584 34.3774C30.7839 34.3774 31.5953 34.4409 32.3909 34.5565C36.1549 27.0647 43.8959 21.9238 52.8382 21.9238C63.6585 21.9238 72.7231 29.4535 75.1045 39.5695C75.3421 40.5795 75.5138 41.6142 75.6123 42.6683V42.671C82.3976 42.8262 87.8539 48.387 87.8539 55.226Z" fill="url(#paint0_linear_512_28043)" fill-opacity="0.8"/>
<path d="M87.8539 55.226C87.8539 62.1638 82.2427 67.7881 75.3184 67.7881H29.9584C20.7539 67.7881 13.291 60.3104 13.291 51.0827C13.291 41.8577 20.7539 34.3774 29.9584 34.3774C30.7839 34.3774 31.5953 34.4409 32.3909 34.5565C36.1549 27.0647 43.8959 21.9238 52.8382 21.9238C63.6585 21.9238 72.7231 29.4535 75.1045 39.5695C75.3421 40.5795 75.5138 41.6142 75.6123 42.6683V42.671C82.3976 42.8262 87.8539 48.387 87.8539 55.226Z" fill="url(#paint1_linear_512_28043)" fill-opacity="0.55"/>
<path fill-rule="evenodd" clip-rule="evenodd" d="M33.1551 36.0226L32.1982 35.8836C31.4619 35.7767 30.715 35.7185 29.9584 35.7185C21.4974 35.7185 14.6321 42.5954 14.6321 51.0827C14.6321 59.5726 21.4973 66.447 29.9584 66.447H75.3184C81.4993 66.447 86.5129 61.4259 86.5129 55.226C86.5129 49.1151 81.6378 44.1502 75.5816 44.0117L74.2713 43.9817V42.7319C74.1777 41.7616 74.0183 40.8083 73.7991 39.8766C71.5565 30.3506 63.0201 23.2649 52.8382 23.2649C44.4237 23.2649 37.1351 28.101 33.5892 35.1585L33.1551 36.0226ZM75.1045 39.5695C72.7231 29.4535 63.6585 21.9238 52.8382 21.9238C43.8959 21.9238 36.1549 27.0647 32.3909 34.5565C31.5953 34.4409 30.7839 34.3774 29.9584 34.3774C20.7539 34.3774 13.291 41.8577 13.291 51.0827C13.291 60.3104 20.7539 67.7881 29.9584 67.7881H75.3184C82.2427 67.7881 87.8539 62.1638 87.8539 55.226C87.8539 48.387 82.3976 42.8262 75.6123 42.671V42.6683C75.5138 41.6142 75.3421 40.5795 75.1045 39.5695Z" fill="url(#paint2_linear_512_28043)"/>
<path d="M49.9362 66C46.8532 69.0831 43.0001 70.6193 43.0001 75.7743C43.0001 75.9586 43.0039 75.7756 43.0115 75.9586C43.3494 84.7142 56.5218 84.7142 56.8609 75.9586C56.8673 75.7756 56.8711 75.9586 56.8711 75.7743C56.8711 70.6193 52.6762 68.7399 49.9362 66Z" fill="#6CA7FF"/>
<path d="M29.9362 71.5999C26.8532 74.6829 23.0001 76.2192 23.0001 81.3742C23.0001 81.5584 23.0039 81.3754 23.0115 81.5584C23.3494 90.314 36.5218 90.314 36.8609 81.5584C36.8673 81.3754 36.8711 81.5584 36.8711 81.3742C36.8711 76.2192 32.6762 74.3398 29.9362 71.5999Z" fill="#6CA7FF"/>
<path d="M77.4955 74.37C77.018 73.5191 75.9617 73.2274 75.1352 73.7181V73.7181C73.5721 74.6475 71.5918 73.5211 71.5918 71.7025V71.612C71.5918 70.6296 70.8178 69.8328 69.8637 69.8328C68.9097 69.8328 68.1357 70.6296 68.1357 71.612V71.7025C68.1357 73.5211 66.1554 74.6475 64.5923 73.7181V73.7181C63.7658 73.2274 62.7094 73.5191 62.232 74.37C61.7545 75.2209 62.0378 76.3086 62.8642 76.8002V76.8002C64.4619 77.7498 64.4619 80.0628 62.8642 81.0124V81.0124C62.0378 81.504 61.7545 82.5917 62.232 83.4426C62.552 84.0135 63.1327 84.3332 63.73 84.3332C64.023 84.3332 64.3203 84.2557 64.5923 84.0946V84.0946C66.1554 83.1651 68.1357 84.2916 68.1357 86.1101V86.2006C68.1357 87.183 68.9097 87.9799 69.8637 87.9799C70.8178 87.9799 71.5918 87.183 71.5918 86.2006V86.1106C71.5918 84.292 73.5719 83.1654 75.1352 84.0946V84.0946C75.4072 84.2566 75.7045 84.3332 75.9975 84.3332C76.5948 84.3332 77.1755 84.0135 77.4955 83.4435C77.9721 82.5926 77.6897 81.504 76.8633 81.0133V81.0133C75.2656 80.0633 75.2654 77.7499 76.8633 76.8002V76.8002C77.6897 76.3086 77.973 75.2209 77.4955 74.37Z" fill="#818494"/>
<defs>
<linearGradient id="paint0_linear_512_28043" x1="87.854" y1="72.9908" x2="13.1298" y2="35.1316" gradientUnits="userSpaceOnUse">
<stop stop-color="#384153" stop-opacity="0.5"/>
<stop offset="1" stop-color="#EFF7FF"/>
</linearGradient>
<linearGradient id="paint1_linear_512_28043" x1="29.7175" y1="34.7617" x2="83.8876" y2="67.5349" gradientUnits="userSpaceOnUse">
<stop stop-color="white" stop-opacity="0.9"/>
<stop offset="1" stop-color="white" stop-opacity="0.51"/>
</linearGradient>
<linearGradient id="paint2_linear_512_28043" x1="18.5211" y1="28.8973" x2="50.5725" y2="62.9603" gradientUnits="userSpaceOnUse">
<stop stop-color="#D9E6EA" stop-opacity="0.55"/>
<stop offset="1" stop-color="white" stop-opacity="0.05"/>
</linearGradient>
</defs>
</svg>
