<svg width="100" height="100" viewBox="0 0 100 100" fill="none" xmlns="http://www.w3.org/2000/svg">
<circle cx="31.9316" cy="33.25" r="20.25" fill="#FFC34D"/>
<path d="M87.8539 56.226C87.8539 63.1638 82.2427 68.7881 75.3184 68.7881H29.9584C20.7539 68.7881 13.291 61.3104 13.291 52.0827C13.291 42.8577 20.7539 35.3774 29.9584 35.3774C30.7839 35.3774 31.5953 35.4409 32.3909 35.5565C36.1549 28.0647 43.8959 22.9238 52.8382 22.9238C63.6585 22.9238 72.7231 30.4535 75.1045 40.5695C75.3421 41.5795 75.5138 42.6142 75.6123 43.6683V43.671C82.3976 43.8262 87.8539 49.387 87.8539 56.226Z" fill="url(#paint0_linear_512_27984)" fill-opacity="0.8"/>
<path d="M87.8539 56.226C87.8539 63.1638 82.2427 68.7881 75.3184 68.7881H29.9584C20.7539 68.7881 13.291 61.3104 13.291 52.0827C13.291 42.8577 20.7539 35.3774 29.9584 35.3774C30.7839 35.3774 31.5953 35.4409 32.3909 35.5565C36.1549 28.0647 43.8959 22.9238 52.8382 22.9238C63.6585 22.9238 72.7231 30.4535 75.1045 40.5695C75.3421 41.5795 75.5138 42.6142 75.6123 43.6683V43.671C82.3976 43.8262 87.8539 49.387 87.8539 56.226Z" fill="url(#paint1_linear_512_27984)" fill-opacity="0.55"/>
<path fill-rule="evenodd" clip-rule="evenodd" d="M33.1551 37.0226L32.1981 36.8836C31.4619 36.7767 30.715 36.7185 29.9584 36.7185C21.4974 36.7185 14.6321 43.5954 14.6321 52.0827C14.6321 60.5726 21.4973 67.447 29.9584 67.447H75.3184C81.4993 67.447 86.5129 62.4259 86.5129 56.226C86.5129 50.1151 81.6378 45.1502 75.5816 45.0117L74.2713 44.9817V43.7319C74.1777 42.7616 74.0183 41.8083 73.7991 40.8766C71.5565 31.3506 63.0201 24.2649 52.8382 24.2649C44.4237 24.2649 37.1351 29.101 33.5892 36.1585L33.1551 37.0226ZM75.1045 40.5695C72.7231 30.4535 63.6585 22.9238 52.8382 22.9238C43.8959 22.9238 36.1549 28.0647 32.3909 35.5565C31.5953 35.4409 30.7839 35.3774 29.9584 35.3774C20.7539 35.3774 13.291 42.8577 13.291 52.0827C13.291 61.3104 20.7539 68.7881 29.9584 68.7881H75.3184C82.2427 68.7881 87.8539 63.1638 87.8539 56.226C87.8539 49.387 82.3976 43.8262 75.6123 43.671V43.6683C75.5138 42.6142 75.3421 41.5795 75.1045 40.5695Z" fill="url(#paint2_linear_512_27984)"/>
<path d="M59.4955 70.37C59.018 69.5191 57.9617 69.2274 57.1352 69.7181V69.7181C55.5721 70.6475 53.5918 69.5211 53.5918 67.7025V67.612C53.5918 66.6296 52.8178 65.8328 51.8637 65.8328C50.9097 65.8328 50.1357 66.6296 50.1357 67.612V67.7025C50.1357 69.5211 48.1554 70.6475 46.5923 69.7181V69.7181C45.7658 69.2274 44.7094 69.5191 44.232 70.37C43.7545 71.2209 44.0378 72.3086 44.8642 72.8002V72.8002C46.4619 73.7498 46.4619 76.0628 44.8642 77.0124V77.0124C44.0378 77.504 43.7545 78.5917 44.232 79.4426C44.552 80.0135 45.1327 80.3332 45.73 80.3332C46.023 80.3332 46.3203 80.2557 46.5923 80.0946V80.0946C48.1554 79.1651 50.1357 80.2916 50.1357 82.1101V82.2006C50.1357 83.183 50.9097 83.9799 51.8637 83.9799C52.8178 83.9799 53.5918 83.183 53.5918 82.2006V82.1106C53.5918 80.292 55.5719 79.1654 57.1352 80.0946V80.0946C57.4072 80.2566 57.7045 80.3332 57.9975 80.3332C58.5948 80.3332 59.1755 80.0135 59.4955 79.4435C59.9721 78.5926 59.6897 77.504 58.8633 77.0133V77.0133C57.2656 76.0633 57.2654 73.7499 58.8633 72.8002V72.8002C59.6897 72.3086 59.973 71.2209 59.4955 70.37Z" fill="#818494"/>
<circle cx="31.9316" cy="33.25" r="20.25" fill="#FFC34D"/>
<path d="M87.8539 56.226C87.8539 63.1638 82.2427 68.7881 75.3184 68.7881H29.9584C20.7539 68.7881 13.291 61.3104 13.291 52.0827C13.291 42.8577 20.7539 35.3774 29.9584 35.3774C30.7839 35.3774 31.5953 35.4409 32.3909 35.5565C36.1549 28.0647 43.8959 22.9238 52.8382 22.9238C63.6585 22.9238 72.7231 30.4535 75.1045 40.5695C75.3421 41.5795 75.5138 42.6142 75.6123 43.6683V43.671C82.3976 43.8262 87.8539 49.387 87.8539 56.226Z" fill="url(#paint3_linear_512_27984)" fill-opacity="0.8"/>
<path d="M87.8539 56.226C87.8539 63.1638 82.2427 68.7881 75.3184 68.7881H29.9584C20.7539 68.7881 13.291 61.3104 13.291 52.0827C13.291 42.8577 20.7539 35.3774 29.9584 35.3774C30.7839 35.3774 31.5953 35.4409 32.3909 35.5565C36.1549 28.0647 43.8959 22.9238 52.8382 22.9238C63.6585 22.9238 72.7231 30.4535 75.1045 40.5695C75.3421 41.5795 75.5138 42.6142 75.6123 43.6683V43.671C82.3976 43.8262 87.8539 49.387 87.8539 56.226Z" fill="url(#paint4_linear_512_27984)" fill-opacity="0.55"/>
<path fill-rule="evenodd" clip-rule="evenodd" d="M33.1551 37.0226L32.1981 36.8836C31.4619 36.7767 30.715 36.7185 29.9584 36.7185C21.4974 36.7185 14.6321 43.5954 14.6321 52.0827C14.6321 60.5726 21.4973 67.447 29.9584 67.447H75.3184C81.4993 67.447 86.5129 62.4259 86.5129 56.226C86.5129 50.1151 81.6378 45.1502 75.5816 45.0117L74.2713 44.9817V43.7319C74.1777 42.7616 74.0183 41.8083 73.7991 40.8766C71.5565 31.3506 63.0201 24.2649 52.8382 24.2649C44.4237 24.2649 37.1351 29.101 33.5892 36.1585L33.1551 37.0226ZM75.1045 40.5695C72.7231 30.4535 63.6585 22.9238 52.8382 22.9238C43.8959 22.9238 36.1549 28.0647 32.3909 35.5565C31.5953 35.4409 30.7839 35.3774 29.9584 35.3774C20.7539 35.3774 13.291 42.8577 13.291 52.0827C13.291 61.3104 20.7539 68.7881 29.9584 68.7881H75.3184C82.2427 68.7881 87.8539 63.1638 87.8539 56.226C87.8539 49.387 82.3976 43.8262 75.6123 43.671V43.6683C75.5138 42.6142 75.3421 41.5795 75.1045 40.5695Z" fill="url(#paint5_linear_512_27984)"/>
<path d="M59.4955 70.37C59.018 69.5191 57.9617 69.2274 57.1352 69.7181V69.7181C55.5721 70.6475 53.5918 69.5211 53.5918 67.7025V67.612C53.5918 66.6296 52.8178 65.8328 51.8637 65.8328C50.9097 65.8328 50.1357 66.6296 50.1357 67.612V67.7025C50.1357 69.5211 48.1554 70.6475 46.5923 69.7181V69.7181C45.7658 69.2274 44.7094 69.5191 44.232 70.37C43.7545 71.2209 44.0378 72.3086 44.8642 72.8002V72.8002C46.4619 73.7498 46.4619 76.0628 44.8642 77.0124V77.0124C44.0378 77.504 43.7545 78.5917 44.232 79.4426C44.552 80.0135 45.1327 80.3332 45.73 80.3332C46.023 80.3332 46.3203 80.2557 46.5923 80.0946V80.0946C48.1554 79.1651 50.1357 80.2916 50.1357 82.1101V82.2006C50.1357 83.183 50.9097 83.9799 51.8637 83.9799C52.8178 83.9799 53.5918 83.183 53.5918 82.2006V82.1106C53.5918 80.292 55.5719 79.1654 57.1352 80.0946V80.0946C57.4072 80.2566 57.7045 80.3332 57.9975 80.3332C58.5948 80.3332 59.1755 80.0135 59.4955 79.4435C59.9721 78.5926 59.6897 77.504 58.8633 77.0133V77.0133C57.2656 76.0633 57.2654 73.7499 58.8633 72.8002V72.8002C59.6897 72.3086 59.973 71.2209 59.4955 70.37Z" fill="#818494"/>
<defs>
<linearGradient id="paint0_linear_512_27984" x1="87.854" y1="73.9908" x2="13.1298" y2="36.1316" gradientUnits="userSpaceOnUse">
<stop stop-color="#384153" stop-opacity="0.5"/>
<stop offset="1" stop-color="#EFF7FF"/>
</linearGradient>
<linearGradient id="paint1_linear_512_27984" x1="29.7175" y1="35.7617" x2="83.8876" y2="68.5349" gradientUnits="userSpaceOnUse">
<stop stop-color="white" stop-opacity="0.9"/>
<stop offset="1" stop-color="white" stop-opacity="0.51"/>
</linearGradient>
<linearGradient id="paint2_linear_512_27984" x1="18.5211" y1="29.8973" x2="50.5725" y2="63.9603" gradientUnits="userSpaceOnUse">
<stop stop-color="#7B91A7"/>
<stop offset="1" stop-color="white" stop-opacity="0"/>
</linearGradient>
<linearGradient id="paint3_linear_512_27984" x1="87.854" y1="73.9908" x2="13.1298" y2="36.1316" gradientUnits="userSpaceOnUse">
<stop stop-color="#384153" stop-opacity="0.5"/>
<stop offset="1" stop-color="#EFF7FF"/>
</linearGradient>
<linearGradient id="paint4_linear_512_27984" x1="29.7175" y1="35.7617" x2="83.8876" y2="68.5349" gradientUnits="userSpaceOnUse">
<stop stop-color="white" stop-opacity="0.9"/>
<stop offset="1" stop-color="white" stop-opacity="0.51"/>
</linearGradient>
<linearGradient id="paint5_linear_512_27984" x1="18.5211" y1="29.8973" x2="50.5725" y2="63.9603" gradientUnits="userSpaceOnUse">
<stop stop-color="#7B91A7"/>
<stop offset="1" stop-color="white" stop-opacity="0"/>
</linearGradient>
</defs>
</svg>
