<svg width="100" height="100" viewBox="0 0 100 100" fill="none" xmlns="http://www.w3.org/2000/svg">
<circle cx="31.9316" cy="33.25" r="20.25" fill="#FFC34D"/>
<path d="M87.8539 56.226C87.8539 63.1638 82.2427 68.7881 75.3184 68.7881H29.9584C20.7539 68.7881 13.291 61.3104 13.291 52.0827C13.291 42.8577 20.7539 35.3774 29.9584 35.3774C30.7839 35.3774 31.5953 35.4409 32.3909 35.5565C36.1549 28.0647 43.8959 22.9238 52.8382 22.9238C63.6585 22.9238 72.7231 30.4535 75.1045 40.5695C75.3421 41.5795 75.5138 42.6142 75.6123 43.6683V43.671C82.3976 43.8262 87.8539 49.387 87.8539 56.226Z" fill="url(#paint0_linear_512_28155)" fill-opacity="0.8"/>
<path d="M87.8539 56.226C87.8539 63.1638 82.2427 68.7881 75.3184 68.7881H29.9584C20.7539 68.7881 13.291 61.3104 13.291 52.0827C13.291 42.8577 20.7539 35.3774 29.9584 35.3774C30.7839 35.3774 31.5953 35.4409 32.3909 35.5565C36.1549 28.0647 43.8959 22.9238 52.8382 22.9238C63.6585 22.9238 72.7231 30.4535 75.1045 40.5695C75.3421 41.5795 75.5138 42.6142 75.6123 43.6683V43.671C82.3976 43.8262 87.8539 49.387 87.8539 56.226Z" fill="url(#paint1_linear_512_28155)" fill-opacity="0.55"/>
<path fill-rule="evenodd" clip-rule="evenodd" d="M33.1551 37.0226L32.1981 36.8836C31.4619 36.7767 30.715 36.7185 29.9584 36.7185C21.4974 36.7185 14.6321 43.5954 14.6321 52.0827C14.6321 60.5726 21.4973 67.447 29.9584 67.447H75.3184C81.4993 67.447 86.5129 62.4259 86.5129 56.226C86.5129 50.1151 81.6378 45.1502 75.5816 45.0117L74.2713 44.9817V43.7319C74.1777 42.7616 74.0183 41.8083 73.7991 40.8766C71.5565 31.3506 63.0201 24.2649 52.8382 24.2649C44.4237 24.2649 37.1351 29.101 33.5892 36.1585L33.1551 37.0226ZM75.1045 40.5695C72.7231 30.4535 63.6585 22.9238 52.8382 22.9238C43.8959 22.9238 36.1549 28.0647 32.3909 35.5565C31.5953 35.4409 30.7839 35.3774 29.9584 35.3774C20.7539 35.3774 13.291 42.8577 13.291 52.0827C13.291 61.3104 20.7539 68.7881 29.9584 68.7881H75.3184C82.2427 68.7881 87.8539 63.1638 87.8539 56.226C87.8539 49.387 82.3976 43.8262 75.6123 43.671V43.6683C75.5138 42.6142 75.3421 41.5795 75.1045 40.5695Z" fill="url(#paint2_linear_512_28155)"/>
<path d="M45.9588 66.0247C43.4454 68.538 40.3043 69.7904 40.3043 73.9928C40.3043 74.1431 40.3074 73.9939 40.3136 74.1431C40.5891 81.2808 51.3274 81.2808 51.6039 74.1431C51.6091 73.9939 51.6122 74.1431 51.6122 73.9928C51.6122 69.7904 48.1924 68.2583 45.9588 66.0247Z" fill="#6CA7FF"/>
<path d="M29.6544 72.5216C27.1411 75.035 24 76.2874 24 80.4898C24 80.64 24.0031 80.4908 24.0093 80.64C24.2847 87.7777 35.0231 87.7777 35.2996 80.64C35.3047 80.4908 35.3078 80.64 35.3078 80.4898C35.3078 76.2874 31.8881 74.7553 29.6544 72.5216Z" fill="#6CA7FF"/>
<path d="M78.3904 66.0247C75.877 68.538 72.736 69.7904 72.736 73.9928C72.736 74.1431 72.7391 73.9939 72.7452 74.1431C73.0207 81.2808 83.7591 81.2808 84.0355 74.1431C84.0407 73.9939 84.0438 74.1431 84.0438 73.9928C84.0438 69.7904 80.624 68.2583 78.3904 66.0247Z" fill="#6CA7FF"/>
<path d="M62.2631 72.7954C59.7497 75.3088 56.6086 76.5612 56.6086 80.7636C56.6086 80.9138 56.6117 80.7646 56.6179 80.9138C56.8934 88.0515 67.6317 88.0515 67.9082 80.9138C67.9134 80.7646 67.9165 80.9138 67.9165 80.7636C67.9165 76.5612 64.4967 75.0291 62.2631 72.7954Z" fill="#6CA7FF"/>
<defs>
<linearGradient id="paint0_linear_512_28155" x1="87.854" y1="73.9908" x2="13.1298" y2="36.1316" gradientUnits="userSpaceOnUse">
<stop stop-color="#384153" stop-opacity="0.5"/>
<stop offset="1" stop-color="#EFF7FF"/>
</linearGradient>
<linearGradient id="paint1_linear_512_28155" x1="29.7175" y1="35.7617" x2="83.8876" y2="68.5349" gradientUnits="userSpaceOnUse">
<stop stop-color="white" stop-opacity="0.9"/>
<stop offset="1" stop-color="white" stop-opacity="0.51"/>
</linearGradient>
<linearGradient id="paint2_linear_512_28155" x1="18.5211" y1="29.8973" x2="50.5725" y2="63.9603" gradientUnits="userSpaceOnUse">
<stop stop-color="#7B91A7"/>
<stop offset="1" stop-color="white" stop-opacity="0"/>
</linearGradient>
</defs>
</svg>
