<svg width="100" height="100" viewBox="0 0 100 100" fill="none" xmlns="http://www.w3.org/2000/svg">
<circle cx="31.9316" cy="33.25" r="20.25" fill="#FFC34D"/>
<path d="M87.8539 56.226C87.8539 63.1638 82.2427 68.7881 75.3184 68.7881H29.9584C20.7539 68.7881 13.291 61.3104 13.291 52.0827C13.291 42.8577 20.7539 35.3774 29.9584 35.3774C30.7839 35.3774 31.5953 35.4409 32.3909 35.5565C36.1549 28.0647 43.8959 22.9238 52.8382 22.9238C63.6585 22.9238 72.7231 30.4535 75.1045 40.5695C75.3421 41.5795 75.5138 42.6142 75.6123 43.6683V43.671C82.3976 43.8262 87.8539 49.387 87.8539 56.226Z" fill="url(#paint0_linear_512_28171)" fill-opacity="0.8"/>
<path d="M87.8539 56.226C87.8539 63.1638 82.2427 68.7881 75.3184 68.7881H29.9584C20.7539 68.7881 13.291 61.3104 13.291 52.0827C13.291 42.8577 20.7539 35.3774 29.9584 35.3774C30.7839 35.3774 31.5953 35.4409 32.3909 35.5565C36.1549 28.0647 43.8959 22.9238 52.8382 22.9238C63.6585 22.9238 72.7231 30.4535 75.1045 40.5695C75.3421 41.5795 75.5138 42.6142 75.6123 43.6683V43.671C82.3976 43.8262 87.8539 49.387 87.8539 56.226Z" fill="url(#paint1_linear_512_28171)" fill-opacity="0.05"/>
<path fill-rule="evenodd" clip-rule="evenodd" d="M33.1551 37.0226L32.1981 36.8836C31.4619 36.7767 30.715 36.7185 29.9584 36.7185C21.4974 36.7185 14.6321 43.5954 14.6321 52.0827C14.6321 60.5726 21.4973 67.447 29.9584 67.447H75.3184C81.4993 67.447 86.5129 62.4259 86.5129 56.226C86.5129 50.1151 81.6378 45.1502 75.5816 45.0117L74.2713 44.9817V43.7319C74.1777 42.7616 74.0183 41.8083 73.7991 40.8766C71.5565 31.3506 63.0201 24.2649 52.8382 24.2649C44.4237 24.2649 37.1351 29.101 33.5892 36.1585L33.1551 37.0226ZM75.1045 40.5695C72.7231 30.4535 63.6585 22.9238 52.8382 22.9238C43.8959 22.9238 36.1549 28.0647 32.3909 35.5565C31.5953 35.4409 30.7839 35.3774 29.9584 35.3774C20.7539 35.3774 13.291 42.8577 13.291 52.0827C13.291 61.3104 20.7539 68.7881 29.9584 68.7881H75.3184C82.2427 68.7881 87.8539 63.1638 87.8539 56.226C87.8539 49.387 82.3976 43.8262 75.6123 43.671V43.6683C75.5138 42.6142 75.3421 41.5795 75.1045 40.5695Z" fill="url(#paint2_linear_512_28171)"/>
<path d="M55.0872 67.0195C53.1109 68.9959 50.641 69.9806 50.641 73.2851C50.641 73.4032 50.6434 73.2859 50.6483 73.4032C50.8649 79.0158 59.3087 79.0158 59.5261 73.4032C59.5302 73.2859 59.5326 73.4032 59.5326 73.2851C59.5326 69.9806 56.8436 68.7759 55.0872 67.0195Z" fill="#6CA7FF"/>
<path d="M29.4462 67.0195C27.4699 68.9959 25 69.9806 25 73.2851C25 73.4032 25.0024 73.2859 25.0073 73.4032C25.2239 79.0158 33.6677 79.0158 33.8851 73.4032C33.8892 73.2859 33.8916 73.4032 33.8916 73.2851C33.8916 69.9806 31.2026 68.7759 29.4462 67.0195Z" fill="#6CA7FF"/>
<path d="M42.2669 72.1279C40.2906 74.1043 37.8207 75.089 37.8207 78.3935C37.8207 78.5116 37.8231 78.3943 37.828 78.5116C38.0446 84.1242 46.4884 84.1242 46.7058 78.5116C46.7099 78.3943 46.7123 78.5116 46.7123 78.3935C46.7123 75.089 44.0233 73.8843 42.2669 72.1279Z" fill="#6CA7FF"/>
<path d="M80.5892 67.0195C78.6128 68.9959 76.1429 69.9806 76.1429 73.2851C76.1429 73.4032 76.1454 73.2859 76.1502 73.4032C76.3668 79.0158 84.8107 79.0158 85.0281 73.4032C85.0321 73.2859 85.0346 73.4032 85.0346 73.2851C85.0346 69.9806 82.3455 68.7759 80.5892 67.0195Z" fill="#6CA7FF"/>
<path d="M67.9079 72.3438C65.9316 74.3201 63.4617 75.3049 63.4617 78.6093C63.4617 78.7275 63.4641 78.6101 63.469 78.7275C63.6856 84.34 72.1294 84.34 72.3468 78.7275C72.3509 78.6101 72.3533 78.7275 72.3533 78.6093C72.3533 75.3049 69.6643 74.1001 67.9079 72.3438Z" fill="#6CA7FF"/>
<defs>
<linearGradient id="paint0_linear_512_28171" x1="87.854" y1="73.9908" x2="13.1298" y2="36.1316" gradientUnits="userSpaceOnUse">
<stop stop-color="#5C5C5C"/>
<stop offset="1" stop-color="#384153" stop-opacity="0.25"/>
</linearGradient>
<linearGradient id="paint1_linear_512_28171" x1="29.7175" y1="35.7617" x2="83.8876" y2="68.5349" gradientUnits="userSpaceOnUse">
<stop stop-color="white" stop-opacity="0.9"/>
<stop offset="1" stop-color="white" stop-opacity="0.51"/>
</linearGradient>
<linearGradient id="paint2_linear_512_28171" x1="18.5211" y1="29.8973" x2="50.5725" y2="63.9603" gradientUnits="userSpaceOnUse">
<stop stop-color="white"/>
<stop offset="1" stop-color="white" stop-opacity="0"/>
</linearGradient>
</defs>
</svg>
