<svg width="100" height="100" viewBox="0 0 100 100" fill="none" xmlns="http://www.w3.org/2000/svg">
<circle cx="31.9316" cy="33.25" r="20.25" fill="#FFC34D"/>
<path d="M87.8539 56.226C87.8539 63.1638 82.2427 68.7881 75.3184 68.7881H29.9584C20.7539 68.7881 13.291 61.3104 13.291 52.0827C13.291 42.8577 20.7539 35.3774 29.9584 35.3774C30.7839 35.3774 31.5953 35.4409 32.3909 35.5565C36.1549 28.0647 43.8959 22.9238 52.8382 22.9238C63.6585 22.9238 72.7231 30.4535 75.1045 40.5695C75.3421 41.5795 75.5138 42.6142 75.6123 43.6683V43.671C82.3976 43.8262 87.8539 49.387 87.8539 56.226Z" fill="url(#paint0_linear_512_28219)" fill-opacity="0.8"/>
<path d="M87.8539 56.226C87.8539 63.1638 82.2427 68.7881 75.3184 68.7881H29.9584C20.7539 68.7881 13.291 61.3104 13.291 52.0827C13.291 42.8577 20.7539 35.3774 29.9584 35.3774C30.7839 35.3774 31.5953 35.4409 32.3909 35.5565C36.1549 28.0647 43.8959 22.9238 52.8382 22.9238C63.6585 22.9238 72.7231 30.4535 75.1045 40.5695C75.3421 41.5795 75.5138 42.6142 75.6123 43.6683V43.671C82.3976 43.8262 87.8539 49.387 87.8539 56.226Z" fill="url(#paint1_linear_512_28219)" fill-opacity="0.55"/>
<path fill-rule="evenodd" clip-rule="evenodd" d="M33.1551 37.0226L32.1981 36.8836C31.4619 36.7767 30.715 36.7185 29.9584 36.7185C21.4974 36.7185 14.6321 43.5954 14.6321 52.0827C14.6321 60.5726 21.4973 67.447 29.9584 67.447H75.3184C81.4993 67.447 86.5129 62.4259 86.5129 56.226C86.5129 50.1151 81.6378 45.1502 75.5816 45.0117L74.2713 44.9817V43.7319C74.1777 42.7616 74.0183 41.8083 73.7991 40.8766C71.5565 31.3506 63.0201 24.2649 52.8382 24.2649C44.4237 24.2649 37.1351 29.101 33.5892 36.1585L33.1551 37.0226ZM75.1045 40.5695C72.7231 30.4535 63.6585 22.9238 52.8382 22.9238C43.8959 22.9238 36.1549 28.0647 32.3909 35.5565C31.5953 35.4409 30.7839 35.3774 29.9584 35.3774C20.7539 35.3774 13.291 42.8577 13.291 52.0827C13.291 61.3104 20.7539 68.7881 29.9584 68.7881H75.3184C82.2427 68.7881 87.8539 63.1638 87.8539 56.226C87.8539 49.387 82.3976 43.8262 75.6123 43.671V43.6683C75.5138 42.6142 75.3421 41.5795 75.1045 40.5695Z" fill="url(#paint2_linear_512_28219)"/>
<path d="M56.4955 73.37C56.018 72.5191 54.9617 72.2274 54.1352 72.7181V72.7181C52.5721 73.6475 50.5918 72.5211 50.5918 70.7025V70.612C50.5918 69.6296 49.8178 68.8328 48.8637 68.8328C47.9097 68.8328 47.1357 69.6296 47.1357 70.612V70.7025C47.1357 72.5211 45.1554 73.6475 43.5923 72.7181V72.7181C42.7658 72.2274 41.7094 72.5191 41.232 73.37C40.7545 74.2209 41.0378 75.3086 41.8642 75.8002V75.8002C43.4619 76.7498 43.4619 79.0628 41.8642 80.0124V80.0124C41.0378 80.504 40.7545 81.5917 41.232 82.4426C41.552 83.0135 42.1327 83.3332 42.73 83.3332C43.023 83.3332 43.3203 83.2557 43.5923 83.0946V83.0946C45.1554 82.1651 47.1357 83.2916 47.1357 85.1101V85.2006C47.1357 86.183 47.9097 86.9799 48.8637 86.9799C49.8178 86.9799 50.5918 86.183 50.5918 85.2006V85.1106C50.5918 83.292 52.5719 82.1654 54.1352 83.0946V83.0946C54.4072 83.2566 54.7045 83.3332 54.9975 83.3332C55.5948 83.3332 56.1755 83.0135 56.4955 82.4435C56.9721 81.5926 56.6897 80.504 55.8633 80.0133V80.0133C54.2656 79.0633 54.2654 76.7499 55.8633 75.8002V75.8002C56.6897 75.3086 56.973 74.2209 56.4955 73.37Z" fill="#818494"/>
<defs>
<linearGradient id="paint0_linear_512_28219" x1="87.854" y1="73.9908" x2="13.1298" y2="36.1316" gradientUnits="userSpaceOnUse">
<stop stop-color="#384153" stop-opacity="0.5"/>
<stop offset="1" stop-color="#EFF7FF"/>
</linearGradient>
<linearGradient id="paint1_linear_512_28219" x1="29.7175" y1="35.7617" x2="83.8876" y2="68.5349" gradientUnits="userSpaceOnUse">
<stop stop-color="white" stop-opacity="0.9"/>
<stop offset="1" stop-color="white" stop-opacity="0.51"/>
</linearGradient>
<linearGradient id="paint2_linear_512_28219" x1="18.5211" y1="29.8973" x2="50.5725" y2="63.9603" gradientUnits="userSpaceOnUse">
<stop stop-color="#7B91A7"/>
<stop offset="1" stop-color="white" stop-opacity="0"/>
</linearGradient>
</defs>
</svg>
