<svg width="100" height="100" viewBox="0 0 100 100" fill="none" xmlns="http://www.w3.org/2000/svg">
<circle cx="31.9316" cy="32.25" r="20.25" fill="#FFC34D"/>
<path d="M87.8539 55.226C87.8539 62.1638 82.2427 67.7881 75.3184 67.7881H29.9584C20.7539 67.7881 13.291 60.3104 13.291 51.0827C13.291 41.8577 20.7539 34.3774 29.9584 34.3774C30.7839 34.3774 31.5953 34.4409 32.3909 34.5565C36.1549 27.0647 43.8959 21.9238 52.8382 21.9238C63.6585 21.9238 72.7231 29.4535 75.1045 39.5695C75.3421 40.5795 75.5138 41.6142 75.6123 42.6683V42.671C82.3976 42.8262 87.8539 48.387 87.8539 55.226Z" fill="url(#paint0_linear_512_28267)" fill-opacity="0.8"/>
<path d="M87.8539 55.226C87.8539 62.1638 82.2427 67.7881 75.3184 67.7881H29.9584C20.7539 67.7881 13.291 60.3104 13.291 51.0827C13.291 41.8577 20.7539 34.3774 29.9584 34.3774C30.7839 34.3774 31.5953 34.4409 32.3909 34.5565C36.1549 27.0647 43.8959 21.9238 52.8382 21.9238C63.6585 21.9238 72.7231 29.4535 75.1045 39.5695C75.3421 40.5795 75.5138 41.6142 75.6123 42.6683V42.671C82.3976 42.8262 87.8539 48.387 87.8539 55.226Z" fill="url(#paint1_linear_512_28267)" fill-opacity="0.55"/>
<path fill-rule="evenodd" clip-rule="evenodd" d="M33.1551 36.0226L32.1981 35.8836C31.4619 35.7767 30.715 35.7185 29.9584 35.7185C21.4974 35.7185 14.6321 42.5954 14.6321 51.0827C14.6321 59.5726 21.4973 66.447 29.9584 66.447H75.3184C81.4993 66.447 86.5129 61.4259 86.5129 55.226C86.5129 49.1151 81.6378 44.1502 75.5816 44.0117L74.2713 43.9817V42.7319C74.1777 41.7616 74.0183 40.8083 73.7991 39.8766C71.5565 30.3506 63.0201 23.2649 52.8382 23.2649C44.4237 23.2649 37.1351 28.101 33.5892 35.1585L33.1551 36.0226ZM75.1045 39.5695C72.7231 29.4535 63.6585 21.9238 52.8382 21.9238C43.8959 21.9238 36.1549 27.0647 32.3909 34.5565C31.5953 34.4409 30.7839 34.3774 29.9584 34.3774C20.7539 34.3774 13.291 41.8577 13.291 51.0827C13.291 60.3104 20.7539 67.7881 29.9584 67.7881H75.3184C82.2427 67.7881 87.8539 62.1638 87.8539 55.226C87.8539 48.387 82.3976 42.8262 75.6123 42.671V42.6683C75.5138 41.6142 75.3421 40.5795 75.1045 39.5695Z" fill="url(#paint2_linear_512_28267)"/>
<path fill-rule="evenodd" clip-rule="evenodd" d="M63.5 83.75C65.8472 83.75 67.75 81.8472 67.75 79.5C67.75 77.1528 65.8472 75.25 63.5 75.25C61.1528 75.25 59.25 77.1528 59.25 79.5C59.25 81.8472 61.1528 83.75 63.5 83.75ZM63.5 88C68.1944 88 72 84.1944 72 79.5C72 74.8056 68.1944 71 63.5 71C58.8056 71 55 74.8056 55 79.5C55 84.1944 58.8056 88 63.5 88Z" fill="#9DB7BF"/>
<path fill-rule="evenodd" clip-rule="evenodd" d="M38.5 83.75C40.8472 83.75 42.75 81.8472 42.75 79.5C42.75 77.1528 40.8472 75.25 38.5 75.25C36.1528 75.25 34.25 77.1528 34.25 79.5C34.25 81.8472 36.1528 83.75 38.5 83.75ZM38.5 88C43.1944 88 47 84.1944 47 79.5C47 74.8056 43.1944 71 38.5 71C33.8056 71 30 74.8056 30 79.5C30 84.1944 33.8056 88 38.5 88Z" fill="#9DB7BF"/>
<defs>
<linearGradient id="paint0_linear_512_28267" x1="87.854" y1="72.9908" x2="13.1298" y2="35.1316" gradientUnits="userSpaceOnUse">
<stop stop-color="#384153" stop-opacity="0.5"/>
<stop offset="1" stop-color="#EFF7FF"/>
</linearGradient>
<linearGradient id="paint1_linear_512_28267" x1="29.7175" y1="34.7617" x2="83.8876" y2="67.5349" gradientUnits="userSpaceOnUse">
<stop stop-color="white" stop-opacity="0.9"/>
<stop offset="1" stop-color="white" stop-opacity="0.51"/>
</linearGradient>
<linearGradient id="paint2_linear_512_28267" x1="18.5211" y1="28.8973" x2="50.5725" y2="62.9603" gradientUnits="userSpaceOnUse">
<stop stop-color="#7B91A7"/>
<stop offset="1" stop-color="white" stop-opacity="0"/>
</linearGradient>
</defs>
</svg>
