<svg width="100" height="100" viewBox="0 0 100 100" fill="none" xmlns="http://www.w3.org/2000/svg">
<circle cx="31.9316" cy="32.25" r="20.25" fill="#FFC34D"/>
<path d="M87.8539 55.226C87.8539 62.1638 82.2427 67.7881 75.3184 67.7881H29.9584C20.7539 67.7881 13.291 60.3104 13.291 51.0827C13.291 41.8577 20.7539 34.3774 29.9584 34.3774C30.7839 34.3774 31.5953 34.4409 32.3909 34.5565C36.1549 27.0647 43.8959 21.9238 52.8382 21.9238C63.6585 21.9238 72.7231 29.4535 75.1045 39.5695C75.3421 40.5795 75.5138 41.6142 75.6123 42.6683V42.671C82.3976 42.8262 87.8539 48.387 87.8539 55.226Z" fill="url(#paint0_linear_512_28315)" fill-opacity="0.8"/>
<path d="M87.8539 55.226C87.8539 62.1638 82.2427 67.7881 75.3184 67.7881H29.9584C20.7539 67.7881 13.291 60.3104 13.291 51.0827C13.291 41.8577 20.7539 34.3774 29.9584 34.3774C30.7839 34.3774 31.5953 34.4409 32.3909 34.5565C36.1549 27.0647 43.8959 21.9238 52.8382 21.9238C63.6585 21.9238 72.7231 29.4535 75.1045 39.5695C75.3421 40.5795 75.5138 41.6142 75.6123 42.6683V42.671C82.3976 42.8262 87.8539 48.387 87.8539 55.226Z" fill="url(#paint1_linear_512_28315)" fill-opacity="0.05"/>
<path fill-rule="evenodd" clip-rule="evenodd" d="M33.1551 36.0226L32.1981 35.8836C31.4619 35.7767 30.715 35.7185 29.9584 35.7185C21.4974 35.7185 14.6321 42.5954 14.6321 51.0827C14.6321 59.5726 21.4973 66.447 29.9584 66.447H75.3184C81.4993 66.447 86.5129 61.4259 86.5129 55.226C86.5129 49.1151 81.6378 44.1502 75.5816 44.0117L74.2713 43.9817V42.7319C74.1777 41.7616 74.0183 40.8083 73.7991 39.8766C71.5565 30.3506 63.0201 23.2649 52.8382 23.2649C44.4237 23.2649 37.1351 28.101 33.5892 35.1585L33.1551 36.0226ZM75.1045 39.5695C72.7231 29.4535 63.6585 21.9238 52.8382 21.9238C43.8959 21.9238 36.1549 27.0647 32.3909 34.5565C31.5953 34.4409 30.7839 34.3774 29.9584 34.3774C20.7539 34.3774 13.291 41.8577 13.291 51.0827C13.291 60.3104 20.7539 67.7881 29.9584 67.7881H75.3184C82.2427 67.7881 87.8539 62.1638 87.8539 55.226C87.8539 48.387 82.3976 42.8262 75.6123 42.671V42.6683C75.5138 41.6142 75.3421 40.5795 75.1045 39.5695Z" fill="url(#paint2_linear_512_28315)"/>
<path d="M72.0665 58.6546C72.8558 57.4511 71.3811 56.0454 70.2892 56.9605L58.6584 66.7076C57.9209 67.3258 58.3427 68.5612 59.2914 68.5612V68.5612C60.1518 68.5612 60.6155 69.6074 60.0547 70.2835L54.2443 77.2895C53.5642 78.1096 54.1265 79.3785 55.1701 79.3785H55.4826C56.4636 79.3785 57.0439 80.5168 56.4908 81.3563L53.2047 86.3445C52.4397 87.5057 53.8002 88.8997 54.9123 88.094L66.7978 79.4837C67.6188 78.889 67.2126 77.5527 66.2109 77.5527V77.5527C65.328 77.5527 64.8588 76.4727 65.4442 75.7879L70.9819 69.3099C71.6795 68.4938 71.1203 67.2066 70.0681 67.2066H68.7631C67.7833 67.2066 67.2028 66.0707 67.7535 65.231L72.0665 58.6546Z" fill="url(#paint3_radial_512_28315)"/>
<path d="M47.4955 74.3702C47.018 73.5193 45.9617 73.2276 45.1352 73.7183V73.7183C43.5721 74.6478 41.5918 73.5213 41.5918 71.7027V71.6122C41.5918 70.6299 40.8178 69.833 39.8637 69.833C38.9097 69.833 38.1357 70.6299 38.1357 71.6122V71.7027C38.1357 73.5213 36.1554 74.6478 34.5923 73.7183V73.7183C33.7658 73.2276 32.7094 73.5193 32.232 74.3702C31.7545 75.2211 32.0378 76.3088 32.8642 76.8005V76.8005C34.4619 77.75 34.4619 80.0631 32.8642 81.0127V81.0127C32.0378 81.5043 31.7545 82.592 32.232 83.4429C32.552 84.0138 33.1327 84.3334 33.73 84.3334C34.023 84.3334 34.3203 84.256 34.5923 84.0948V84.0948C36.1554 83.1653 38.1357 84.2918 38.1357 86.1104V86.2009C38.1357 87.1832 38.9097 87.9801 39.8637 87.9801C40.8178 87.9801 41.5918 87.1832 41.5918 86.2009V86.1108C41.5918 84.2922 43.5719 83.1656 45.1352 84.0948V84.0948C45.4072 84.2569 45.7045 84.3334 45.9975 84.3334C46.5948 84.3334 47.1755 84.0138 47.4955 83.4438C47.9721 82.5929 47.6897 81.5043 46.8633 81.0136V81.0136C45.2656 80.0636 45.2654 77.7501 46.8633 76.8005V76.8005C47.6897 76.3088 47.973 75.2211 47.4955 74.3702Z" fill="#818494"/>
<defs>
<linearGradient id="paint0_linear_512_28315" x1="87.854" y1="72.9908" x2="13.1298" y2="35.1316" gradientUnits="userSpaceOnUse">
<stop stop-color="#5C5C5C"/>
<stop offset="1" stop-color="#384153" stop-opacity="0.25"/>
</linearGradient>
<linearGradient id="paint1_linear_512_28315" x1="29.7175" y1="34.7617" x2="83.8876" y2="67.5349" gradientUnits="userSpaceOnUse">
<stop stop-color="white" stop-opacity="0.9"/>
<stop offset="1" stop-color="white" stop-opacity="0.51"/>
</linearGradient>
<linearGradient id="paint2_linear_512_28315" x1="18.5211" y1="28.8973" x2="50.5725" y2="62.9603" gradientUnits="userSpaceOnUse">
<stop stop-color="white"/>
<stop offset="1" stop-color="white" stop-opacity="0"/>
</linearGradient>
<radialGradient id="paint3_radial_512_28315" cx="0" cy="0" r="1" gradientUnits="userSpaceOnUse" gradientTransform="translate(63.0717 71.8219) rotate(90) scale(28.1663 18.9726)">
<stop stop-color="#FFD88B"/>
<stop offset="1" stop-color="#FFA900"/>
</radialGradient>
</defs>
</svg>
