<svg width="51" height="51" viewBox="0 0 51 51" fill="none" xmlns="http://www.w3.org/2000/svg">
<path fill-rule="evenodd" clip-rule="evenodd" d="M19.9778 45.1382C12.3278 45.1382 5.79236 43.9819 5.79236 39.3486C5.79236 34.7153 12.2861 30.5403 19.9778 30.5403C27.6278 30.5403 34.1611 34.6757 34.1611 39.3069C34.1611 43.9382 27.6694 45.1382 19.9778 45.1382Z" stroke="#130F26" stroke-width="4.37771" stroke-linecap="round" stroke-linejoin="round"/>
<path fill-rule="evenodd" clip-rule="evenodd" d="M19.9777 23.9325C24.9986 23.9325 29.0694 19.8617 29.0694 14.8409C29.0694 9.82005 24.9986 5.74921 19.9777 5.74921C14.9569 5.74921 10.8861 9.82005 10.8861 14.8409C10.8673 19.845 14.9111 23.9159 19.9131 23.9325H19.9777Z" stroke="#130F26" stroke-width="4.37771" stroke-linecap="round" stroke-linejoin="round"/>
<path d="M35.0667 21.4353C37.9896 20.654 40.1438 17.9894 40.1438 14.8186C40.1459 11.5103 37.798 8.74775 34.6771 8.10817" stroke="#130F26" stroke-width="4.37771" stroke-linecap="round" stroke-linejoin="round"/>
<path d="M36.4409 28.8826C40.5826 28.8826 44.1201 31.6909 44.1201 34.1971C44.1201 35.6742 42.9013 37.1909 41.0472 37.6263" stroke="#130F26" stroke-width="4.37771" stroke-linecap="round" stroke-linejoin="round"/>
</svg>
