<svg width="51" height="51" viewBox="0 0 51 51" fill="none" xmlns="http://www.w3.org/2000/svg">
<path fill-rule="evenodd" clip-rule="evenodd" d="M25.7259 42.8715C18.978 42.8715 13.2134 41.8507 13.2134 37.7632C13.2134 33.6757 18.9405 30.1173 25.7259 30.1173C32.4738 30.1173 38.2384 33.6423 38.2384 37.7278C38.2384 41.8132 32.5113 42.8715 25.7259 42.8715Z" stroke="#130F26" stroke-width="4.37771" stroke-linecap="round" stroke-linejoin="round"/>
<path fill-rule="evenodd" clip-rule="evenodd" d="M25.7258 24.2892C30.155 24.2892 33.7467 20.6996 33.7467 16.2705C33.7467 11.8413 30.155 8.24963 25.7258 8.24963C21.2967 8.24963 17.705 11.8413 17.705 16.2705C17.6925 20.683 21.255 24.2746 25.6696 24.2892H25.7258Z" stroke="#130F26" stroke-width="4.37771" stroke-linecap="round" stroke-linejoin="round"/>
<path d="M39.0377 22.0869C41.6148 21.3973 43.5148 19.0473 43.5148 16.2494C43.5148 13.3307 41.4461 10.8932 38.6919 10.3307" stroke="#130F26" stroke-width="4.37771" stroke-linecap="round" stroke-linejoin="round"/>
<path d="M40.2482 28.6552C43.9023 28.6552 47.0232 31.1323 47.0232 33.3448C47.0232 34.6469 45.9461 36.0657 44.3128 36.449" stroke="#130F26" stroke-width="4.37771" stroke-linecap="round" stroke-linejoin="round"/>
<path d="M12.4161 22.0869C9.83689 21.3973 7.93689 19.0473 7.93689 16.2494C7.93689 13.3307 10.0077 10.8932 12.7598 10.3307" stroke="#130F26" stroke-width="4.37771" stroke-linecap="round" stroke-linejoin="round"/>
<path d="M11.2036 28.6552C7.54942 28.6552 4.42859 31.1323 4.42859 33.3448C4.42859 34.6469 5.50567 36.0657 7.14109 36.449" stroke="#130F26" stroke-width="4.37771" stroke-linecap="round" stroke-linejoin="round"/>
</svg>
