<svg width="51" height="51" viewBox="0 0 51 51" fill="none" xmlns="http://www.w3.org/2000/svg">
<path d="M15.1296 31.6645L21.365 23.5624L28.4775 29.1458L34.5796 21.2708" stroke="#130F26" stroke-width="4.37771" stroke-linecap="round" stroke-linejoin="round"/>
<path fill-rule="evenodd" clip-rule="evenodd" d="M41.6921 5.6147C43.9046 5.6147 45.6963 7.40637 45.6963 9.61887C45.6963 11.8293 43.9046 13.623 41.6921 13.623C39.4796 13.623 37.6879 11.8293 37.6879 9.61887C37.6879 7.40637 39.4796 5.6147 41.6921 5.6147Z" stroke="#130F26" stroke-width="4.37771" stroke-linecap="round" stroke-linejoin="round"/>
<path d="M43.9596 20.0293C44.2367 21.8939 44.3637 23.9939 44.3637 26.3501C44.3637 40.8043 39.5471 45.621 25.0929 45.621C10.6408 45.621 5.82208 40.8043 5.82208 26.3501C5.82208 11.898 10.6408 7.07928 25.0929 7.07928C27.4054 7.07928 29.47 7.2022 31.3075 7.46887" stroke="#130F26" stroke-width="4.37771" stroke-linecap="round" stroke-linejoin="round"/>
</svg>
