<svg width="51" height="51" viewBox="0 0 51 51" fill="none" xmlns="http://www.w3.org/2000/svg">
<path fill-rule="evenodd" clip-rule="evenodd" d="M21.0168 45.8717C13.071 45.8717 6.28351 44.6696 6.28351 39.8571C6.28351 35.0446 13.0273 30.6675 21.0168 30.6675C28.9627 30.6675 35.7502 35.003 35.7502 39.8134C35.7502 44.6238 29.0064 45.8717 21.0168 45.8717Z" stroke="#130F26" stroke-width="4.37771" stroke-linecap="round" stroke-linejoin="round"/>
<path fill-rule="evenodd" clip-rule="evenodd" d="M21.0169 23.8044C26.2315 23.8044 30.4606 19.5753 30.4606 14.3607C30.4606 9.14401 26.2315 4.91692 21.0169 4.91692C15.8023 4.91692 11.5731 9.14401 11.5731 14.3607C11.5544 19.5565 15.7544 23.7857 20.9502 23.8044H21.0169Z" stroke="#130F26" stroke-width="4.37771" stroke-linecap="round" stroke-linejoin="round"/>
<path d="M40.2022 17.3734V25.7275" stroke="#130F26" stroke-width="4.37771" stroke-linecap="round" stroke-linejoin="round"/>
<path d="M44.4654 21.5501H35.9446" stroke="#130F26" stroke-width="4.37771" stroke-linecap="round" stroke-linejoin="round"/>
</svg>
