<svg width="51" height="51" viewBox="0 0 51 51" fill="none" xmlns="http://www.w3.org/2000/svg">
<path d="M11.5723 15.3024C19.6775 12.6855 29.1736 12.0852 33.3977 12.1774C37.6219 12.2697 39.4043 13.7739 40.6894 16.3441C42.7727 20.5108 42.3332 30.9026 38.6061 34.2339C34.8811 37.5651 19.5022 37.8818 14.3772 34.2339C8.96263 30.3776 11.7915 19.8691 11.6144 12.6837C11.7207 8.66284 7.35608 8.01076 7.35608 8.01076" stroke="#130F26" stroke-width="4.37771" stroke-linecap="round" stroke-linejoin="round"/>
<path d="M27.1478 22.5941H32.9249" stroke="#130F26" stroke-width="4.37771" stroke-linecap="round" stroke-linejoin="round"/>
<path fill-rule="evenodd" clip-rule="evenodd" d="M15.1977 42.6512C15.8227 42.6512 16.331 43.1595 16.331 43.7845C16.331 44.4116 15.8227 44.9199 15.1977 44.9199C14.5706 44.9199 14.0623 44.4116 14.0623 43.7845C14.0623 43.1595 14.5706 42.6512 15.1977 42.6512Z" fill="#130F26" stroke="#130F26" stroke-width="4.37771" stroke-linecap="round" stroke-linejoin="round"/>
<path fill-rule="evenodd" clip-rule="evenodd" d="M36.7216 42.6512C37.3487 42.6512 37.857 43.1595 37.857 43.7845C37.857 44.4116 37.3487 44.9199 36.7216 44.9199C36.0966 44.9199 35.5883 44.4116 35.5883 43.7845C35.5883 43.1595 36.0966 42.6512 36.7216 42.6512Z" fill="#130F26" stroke="#130F26" stroke-width="4.37771" stroke-linecap="round" stroke-linejoin="round"/>
</svg>
