<svg width="51" height="51" viewBox="0 0 51 51" fill="none" xmlns="http://www.w3.org/2000/svg">
<path fill-rule="evenodd" clip-rule="evenodd" d="M33.0704 26.4755C33.0704 22.857 30.1361 19.9228 26.5177 19.9228C22.8993 19.9228 19.9651 22.857 19.9651 26.4755C19.9651 30.0939 22.8993 33.0281 26.5177 33.0281C30.1361 33.0281 33.0704 30.0939 33.0704 26.4755Z" stroke="#130F26" stroke-width="4.37771" stroke-linecap="round" stroke-linejoin="round"/>
<path fill-rule="evenodd" clip-rule="evenodd" d="M26.5171 42.5213C43.278 42.5213 45.2737 37.4994 45.2737 26.6178C45.2737 18.9906 44.2649 14.9095 37.9118 13.1551C37.3285 12.9709 36.6816 12.62 36.1574 12.0432C35.3109 11.1156 34.6925 8.26692 32.6487 7.40508C30.6048 6.54543 22.3965 6.5849 20.3855 7.40508C18.3767 8.22744 17.7232 11.1156 16.8767 12.0432C16.3526 12.62 15.7079 12.9709 15.1223 13.1551C8.76927 14.9095 7.7605 18.9906 7.7605 26.6178C7.7605 37.4994 9.75611 42.5213 26.5171 42.5213Z" stroke="#130F26" stroke-width="4.37771" stroke-linecap="round" stroke-linejoin="round"/>
<path d="M36.7504 19.1878H36.7691" stroke="#130F26" stroke-width="4.37771" stroke-linecap="round" stroke-linejoin="round"/>
</svg>
