<svg width="51" height="50" viewBox="0 0 51 50" fill="none" xmlns="http://www.w3.org/2000/svg">
<path fill-rule="evenodd" clip-rule="evenodd" d="M44.3451 13.9038C44.3451 18.13 40.9176 21.5575 36.6914 21.5575C32.4651 21.5575 29.0395 18.13 29.0395 13.9038C29.0395 9.6775 32.4651 6.25 36.6914 6.25C40.9176 6.25 44.3451 9.6775 44.3451 13.9038Z" stroke="#130F26" stroke-width="4.37771" stroke-linecap="round" stroke-linejoin="round"/>
<path fill-rule="evenodd" clip-rule="evenodd" d="M22.15 13.9037C22.15 18.13 18.7244 21.5575 14.4963 21.5575C10.2719 21.5575 6.84438 18.13 6.84438 13.9037C6.84438 9.6775 10.2719 6.25 14.4963 6.25C18.7244 6.25 22.15 9.6775 22.15 13.9037Z" stroke="#130F26" stroke-width="4.37771" stroke-linecap="round" stroke-linejoin="round"/>
<path fill-rule="evenodd" clip-rule="evenodd" d="M44.3451 35.9624C44.3451 40.1886 40.9176 43.6143 36.6914 43.6143C32.4651 43.6143 29.0395 40.1886 29.0395 35.9624C29.0395 31.7361 32.4651 28.3086 36.6914 28.3086C40.9176 28.3086 44.3451 31.7361 44.3451 35.9624Z" stroke="#130F26" stroke-width="4.37771" stroke-linecap="round" stroke-linejoin="round"/>
<path fill-rule="evenodd" clip-rule="evenodd" d="M22.15 35.9624C22.15 40.1886 18.7244 43.6143 14.4963 43.6143C10.2719 43.6143 6.84438 40.1886 6.84438 35.9624C6.84438 31.7361 10.2719 28.3086 14.4963 28.3086C18.7244 28.3086 22.15 31.7361 22.15 35.9624Z" stroke="#130F26" stroke-width="4.37771" stroke-linecap="round" stroke-linejoin="round"/>
</svg>
