<svg width="51" height="51" viewBox="0 0 51 51" fill="none" xmlns="http://www.w3.org/2000/svg">
<path d="M25.876 5.886C11.4239 5.886 6.60513 10.7047 6.60513 25.1568C6.60513 39.6089 11.4239 44.4277 25.876 44.4277C40.328 44.4277 45.1468 39.6089 45.1468 25.1568" stroke="#130F26" stroke-width="4.37771" stroke-linecap="round" stroke-linejoin="round"/>
<path fill-rule="evenodd" clip-rule="evenodd" d="M41.5599 9.12288V9.12288C39.4912 7.29163 36.3308 7.48329 34.4995 9.55204C34.4995 9.55204 25.3974 19.8333 22.2412 23.402C19.0808 26.9687 21.3974 31.8958 21.3974 31.8958C21.3974 31.8958 26.6141 33.5479 29.7266 30.0312C32.8412 26.5145 41.9891 16.1833 41.9891 16.1833C43.8203 14.1145 43.6266 10.9541 41.5599 9.12288Z" stroke="#130F26" stroke-width="4.37771" stroke-linecap="round" stroke-linejoin="round"/>
<path d="M32.1443 12.2416L39.6339 18.8729" stroke="#130F26" stroke-width="4.37771" stroke-linecap="round" stroke-linejoin="round"/>
</svg>
