<svg width="51" height="51" viewBox="0 0 51 51" fill="none" xmlns="http://www.w3.org/2000/svg">
<path d="M23.4047 37.4125H9.92029" stroke="#130F26" stroke-width="4.37771" stroke-linecap="round" stroke-linejoin="round"/>
<path fill-rule="evenodd" clip-rule="evenodd" d="M31.8658 37.4144C31.8658 41.6681 33.2843 43.0848 37.5362 43.0848C41.788 43.0848 43.2066 41.6681 43.2066 37.4144C43.2066 33.1606 41.788 31.744 37.5362 31.744C33.2843 31.744 31.8658 33.1606 31.8658 37.4144Z" stroke="#130F26" stroke-width="4.37771" stroke-linecap="round" stroke-linejoin="round"/>
<path d="M29.7232 15.5612H43.2058" stroke="#130F26" stroke-width="4.37771" stroke-linecap="round" stroke-linejoin="round"/>
<path fill-rule="evenodd" clip-rule="evenodd" d="M21.2622 15.5584C21.2622 11.3065 19.8437 9.88799 15.5918 9.88799C11.3381 9.88799 9.91956 11.3065 9.91956 15.5584C9.91956 19.8121 11.3381 21.2288 15.5918 21.2288C19.8437 21.2288 21.2622 19.8121 21.2622 15.5584Z" stroke="#130F26" stroke-width="4.37771" stroke-linecap="round" stroke-linejoin="round"/>
</svg>
