<svg width="51" height="51" viewBox="0 0 51 51" fill="none" xmlns="http://www.w3.org/2000/svg">
<path d="M13.8449 37.0937C9.19904 34.052 6.19904 29.4687 6.19904 25.4479C6.19904 18.6145 14.824 10.2395 25.4699 10.2395C29.824 10.2395 33.8657 11.6354 37.1157 13.802" stroke="#130F26" stroke-width="4.37771" stroke-linecap="round" stroke-linejoin="round"/>
<path d="M41.8234 18.0945C43.6797 20.4487 44.7609 23.0529 44.7609 25.4487C44.7609 32.282 36.1151 40.657 25.4693 40.657C23.5734 40.657 21.7214 40.3862 19.9901 39.907" stroke="#130F26" stroke-width="4.37771" stroke-linecap="round" stroke-linejoin="round"/>
<path d="M20.8151 30.0879C19.5755 28.8608 18.8818 27.1879 18.888 25.4441C18.8797 21.8087 21.8213 18.8545 25.4588 18.8483C27.2088 18.8441 28.888 19.5379 30.1255 20.7754" stroke="#130F26" stroke-width="4.37771" stroke-linecap="round" stroke-linejoin="round"/>
<path d="M31.948 26.6131C31.4605 29.3047 29.3542 31.4152 26.6626 31.9089" stroke="#130F26" stroke-width="4.37771" stroke-linecap="round" stroke-linejoin="round"/>
<path d="M41.9109 9.01059L9.04843 41.8731" stroke="#130F26" stroke-width="4.37771" stroke-linecap="round" stroke-linejoin="round"/>
</svg>
