<svg width="51" height="51" viewBox="0 0 51 51" fill="none" xmlns="http://www.w3.org/2000/svg">
<path d="M13.2736 34.4462C13.2736 34.4462 14.9653 31.0358 17.4278 31.0358C19.8903 31.0358 21.1486 33.9004 23.8778 33.9004C26.6049 33.9004 29.6653 26.717 32.757 26.717C35.8445 26.717 38.0653 31.6983 38.0653 31.6983" stroke="#130F26" stroke-width="4.37771" stroke-linecap="round" stroke-linejoin="round"/>
<path fill-rule="evenodd" clip-rule="evenodd" d="M21.7501 19.1252C21.7501 20.9168 20.298 22.371 18.5042 22.371C16.7126 22.371 15.2605 20.9168 15.2605 19.1252C15.2605 17.3335 16.7126 15.8793 18.5042 15.8793C20.298 15.8814 21.7501 17.3335 21.7501 19.1252Z" stroke="#130F26" stroke-width="4.37771" stroke-linecap="round" stroke-linejoin="round"/>
<path fill-rule="evenodd" clip-rule="evenodd" d="M6.35632 25.1568C6.35632 39.6089 11.1751 44.4277 25.6272 44.4277C40.0792 44.4277 44.898 39.6089 44.898 25.1568C44.898 10.7047 40.0792 5.886 25.6272 5.886C11.1751 5.886 6.35632 10.7047 6.35632 25.1568Z" stroke="#130F26" stroke-width="4.37771" stroke-linecap="round" stroke-linejoin="round"/>
</svg>
