<svg width="51" height="51" viewBox="0 0 51 51" fill="none" xmlns="http://www.w3.org/2000/svg">
<path fill-rule="evenodd" clip-rule="evenodd" d="M6.07458 25.1568C6.07458 39.6089 10.8933 44.4277 25.3454 44.4277C39.7975 44.4277 44.6162 39.6089 44.6162 25.1568C44.6162 10.7047 39.7975 5.886 25.3454 5.886C10.8933 5.886 6.07458 10.7047 6.07458 25.1568Z" stroke="#130F26" stroke-width="4.37771" stroke-linecap="round" stroke-linejoin="round"/>
<path fill-rule="evenodd" clip-rule="evenodd" d="M22.4258 18.457C22.4258 20.4841 20.7842 22.1258 18.7571 22.1258C16.7321 22.1258 15.0883 20.4841 15.0883 18.457C15.0883 16.43 16.7321 14.7883 18.7571 14.7883C20.7842 14.7883 22.4258 16.43 22.4258 18.457Z" stroke="#130F26" stroke-width="4.37771" stroke-linecap="round" stroke-linejoin="round"/>
<path d="M44.3456 30.712C42.5102 28.8245 39.9144 25.01 35.1456 25.01C30.3769 25.01 30.2727 33.4225 25.406 33.4225C20.5373 33.4225 18.5769 30.5662 15.4039 32.0579C12.2331 33.5475 9.64978 39.4766 9.64978 39.4766" stroke="#130F26" stroke-width="4.37771" stroke-linecap="round" stroke-linejoin="round"/>
</svg>
