<svg width="51" height="50" viewBox="0 0 51 50" fill="none" xmlns="http://www.w3.org/2000/svg">
<path fill-rule="evenodd" clip-rule="evenodd" d="M22.4893 25.0002C22.4893 27.1315 20.7622 28.8585 18.6309 28.8585C16.4997 28.8585 14.7726 27.1315 14.7726 25.0002C14.7726 22.869 16.4997 21.1419 18.6309 21.1419H18.6372C20.7663 21.144 22.4893 22.871 22.4893 25.0002Z" stroke="#130F26" stroke-width="4.37771" stroke-linecap="round" stroke-linejoin="round"/>
<path d="M22.4955 25.0002H35.658V28.8585" stroke="#130F26" stroke-width="4.37771" stroke-linecap="round" stroke-linejoin="round"/>
<path d="M29.7668 28.8585V25.0002" stroke="#130F26" stroke-width="4.37771" stroke-linecap="round" stroke-linejoin="round"/>
<path fill-rule="evenodd" clip-rule="evenodd" d="M5.94983 25.0002C5.94983 10.5481 10.7686 5.72937 25.2207 5.72937C39.6727 5.72937 44.4915 10.5481 44.4915 25.0002C44.4915 39.4523 39.6727 44.271 25.2207 44.271C10.7686 44.271 5.94983 39.4523 5.94983 25.0002Z" stroke="#130F26" stroke-width="4.37771" stroke-linecap="round" stroke-linejoin="round"/>
</svg>
