<svg width="51" height="51" viewBox="0 0 51 51" fill="none" xmlns="http://www.w3.org/2000/svg">
<path fill-rule="evenodd" clip-rule="evenodd" d="M25.3027 45.5667C17.6114 45.5667 11.0432 44.3699 11.0432 39.5766C11.0432 34.7833 17.5697 30.3584 25.3027 30.3584C32.994 30.3584 39.5622 34.7404 39.5622 39.5337C39.5622 44.325 33.0356 45.5667 25.3027 45.5667Z" stroke="#130F26" stroke-width="4.37771" stroke-linecap="round" stroke-linejoin="round"/>
<path fill-rule="evenodd" clip-rule="evenodd" d="M25.2876 23.7162C30.335 23.7162 34.4259 19.6253 34.4259 14.5779C34.4259 9.53056 30.335 5.43775 25.2876 5.43775C20.2403 5.43775 16.1475 9.53056 16.1475 14.5779C16.1304 19.6082 20.1929 23.6991 25.2232 23.7162C25.2459 23.7162 25.2668 23.7162 25.2876 23.7162Z" stroke="#130F26" stroke-width="4.37771" stroke-linecap="round" stroke-linejoin="round"/>
</svg>
