<svg width="51" height="51" viewBox="0 0 51 51" fill="none" xmlns="http://www.w3.org/2000/svg">
<path fill-rule="evenodd" clip-rule="evenodd" d="M25.1566 20.2294C28.0334 20.2294 30.3649 22.5609 30.3649 25.4378C30.3649 28.3146 28.0334 30.6461 25.1566 30.6461C22.2798 30.6461 19.9483 28.3146 19.9483 25.4378C19.9483 22.5609 22.2798 20.2294 25.1566 20.2294Z" stroke="#130F26" stroke-width="4.37771" stroke-linecap="round" stroke-linejoin="round"/>
<path fill-rule="evenodd" clip-rule="evenodd" d="M42.1733 15.5424V15.5424C40.7492 13.0586 37.5967 12.2087 35.1327 13.643C32.9894 14.888 30.3109 13.3302 30.3109 10.8381C30.3109 7.97149 28.0022 5.64609 25.1561 5.64609V5.64609C22.31 5.64609 20.0013 7.97149 20.0013 10.8381C20.0013 13.3302 17.3228 14.888 15.1816 13.643C12.7155 12.2087 9.56301 13.0586 8.13895 15.5424C6.71694 18.0263 7.56075 21.2016 10.0268 22.6339C12.168 23.881 12.168 26.9945 10.0268 28.2416C7.56075 29.676 6.71694 32.8513 8.13895 35.3331C9.56301 37.8169 12.7155 38.6668 15.1796 37.2346H15.1816C17.3228 35.9875 20.0013 37.5453 20.0013 40.0374V40.0374C20.0013 42.904 22.31 45.2294 25.1561 45.2294V45.2294C28.0022 45.2294 30.3109 42.904 30.3109 40.0374V40.0374C30.3109 37.5453 32.9894 35.9875 35.1327 37.2346C37.5967 38.6668 40.7492 37.8169 42.1733 35.3331C43.5973 32.8513 42.7515 29.676 40.2875 28.2416H40.2854C38.1442 26.9945 38.1442 23.881 40.2875 22.6339C42.7515 21.2016 43.5973 18.0263 42.1733 15.5424Z" stroke="#130F26" stroke-width="4.37771" stroke-linecap="round" stroke-linejoin="round"/>
</svg>
