<svg width="51" height="51" viewBox="0 0 51 51" fill="none" xmlns="http://www.w3.org/2000/svg">
<path fill-rule="evenodd" clip-rule="evenodd" d="M25.4699 6.68775C21.2279 6.68775 20.8268 14.0763 18.3014 16.6869C15.7759 19.2974 7.92446 16.3126 6.8336 20.9461C5.74503 25.5821 12.8081 27.155 13.679 31.1324C14.5544 35.1098 10.2391 40.698 13.9265 43.4791C17.6138 46.2578 21.5831 39.9684 25.4699 39.9684C29.3566 39.9684 33.3259 46.2578 37.0132 43.4791C40.7006 40.698 36.3876 35.1098 37.2608 31.1324C38.1339 27.155 45.1947 25.5821 44.1061 20.9461C43.0176 16.3126 35.1638 19.2974 32.6406 16.6869C30.1152 14.0763 29.7118 6.68775 25.4699 6.68775Z" stroke="#130F26" stroke-width="4.37771" stroke-linecap="round" stroke-linejoin="round"/>
</svg>
