<svg width="51" height="51" viewBox="0 0 51 51" fill="none" xmlns="http://www.w3.org/2000/svg">
<path fill-rule="evenodd" clip-rule="evenodd" d="M44.8552 29.8729C39.3115 29.8729 39.3115 21.3012 44.8552 21.3012C44.8552 11.3697 44.8552 7.82492 25.2823 7.82492C5.70941 7.82492 5.70941 11.3697 5.70941 21.3012C11.2532 21.3012 11.2532 29.8729 5.70941 29.8729C5.70941 39.8065 5.70941 43.3512 25.2823 43.3512C44.8552 43.3512 44.8552 39.8065 44.8552 29.8729Z" stroke="#130F26" stroke-width="4.37771" stroke-linecap="round" stroke-linejoin="round"/>
<path fill-rule="evenodd" clip-rule="evenodd" d="M25.2824 19.8253C23.8594 19.8253 23.724 22.0951 22.8782 22.8983C22.0303 23.6997 19.399 22.7839 19.0324 24.2069C18.6678 25.6319 21.0365 26.1154 21.3303 27.3372C21.6219 28.5589 20.1761 30.276 21.4115 31.1326C22.649 31.9852 23.9803 30.0529 25.2824 30.0529C26.5844 30.0529 27.9157 31.9852 29.1532 31.1326C30.3907 30.276 28.9428 28.5589 29.2344 27.3372C29.5282 26.1154 31.8969 25.6319 31.5324 24.2069C31.1657 22.7839 28.5344 23.6997 27.6865 22.8983C26.8407 22.0951 26.7053 19.8253 25.2824 19.8253Z" stroke="#130F26" stroke-width="4.37771" stroke-linecap="round" stroke-linejoin="round"/>
</svg>
