<svg width="51" height="51" viewBox="0 0 51 51" fill="none" xmlns="http://www.w3.org/2000/svg">
<path d="M38.8986 18.4265C41.5097 23.1579 41.5097 28.932 38.8986 33.6468" stroke="#130F26" stroke-width="4.37771" stroke-linecap="round" stroke-linejoin="round"/>
<path fill-rule="evenodd" clip-rule="evenodd" d="M9.75547 26.0363C9.74807 28.5752 9.75547 31.5529 11.8518 33.3326C13.9481 35.1141 15.6129 34.3789 18.3258 35.2715C21.0407 36.1659 24.8425 41.6807 29.0425 39.19C31.3129 37.577 32.3833 34.5326 32.3833 26.0363C32.3833 17.54 31.361 14.5289 29.0425 12.8826C24.8425 10.3937 21.0407 15.9085 18.3258 16.8011C15.6129 17.6955 13.9481 16.9603 11.8518 18.74C9.75547 20.5196 9.74807 23.4974 9.75547 26.0363Z" stroke="#130F26" stroke-width="4.37771" stroke-linecap="round" stroke-linejoin="round"/>
</svg>
