<svg width="51" height="51" viewBox="0 0 51 51" fill="none" xmlns="http://www.w3.org/2000/svg">
<path d="M40.8042 12.4679C45.9992 20.2179 46.0144 30.4451 40.8042 38.2122" stroke="#130F26" stroke-width="4.37771" stroke-linecap="round" stroke-linejoin="round"/>
<path d="M35.7069 17.5569C38.3773 22.3959 38.3773 28.3012 35.7069 33.1232" stroke="#130F26" stroke-width="4.37771" stroke-linecap="round" stroke-linejoin="round"/>
<path fill-rule="evenodd" clip-rule="evenodd" d="M5.90132 25.3397C5.89564 27.9362 5.90132 30.9817 8.04526 32.8018C10.1911 34.6237 11.8918 33.8719 14.6665 34.7847C17.443 35.6995 21.3312 41.3397 25.6267 38.7923C27.9487 37.1427 29.0434 34.029 29.0434 25.3397C29.0434 16.6503 27.9979 13.5707 25.6267 11.887C21.3312 9.34154 17.443 14.9817 14.6665 15.8946C11.8918 16.8093 10.1911 16.0575 8.04526 17.8775C5.90132 19.6976 5.89564 22.7431 5.90132 25.3397Z" stroke="#130F26" stroke-width="4.37771" stroke-linecap="round" stroke-linejoin="round"/>
</svg>
