<svg width="51" height="50" viewBox="0 0 51 50" fill="none" xmlns="http://www.w3.org/2000/svg">
<path d="M25.5777 34.41V28.935" stroke="#130F26" stroke-width="4.37771" stroke-linecap="round" stroke-linejoin="round"/>
<path d="M44.5952 23.9119L44.5348 23.9556C39.489 27.0639 32.8265 28.941 25.5681 28.941C18.3098 28.941 11.6661 27.0639 6.62231 23.9556L6.55981 23.9119" stroke="#130F26" stroke-width="4.37771" stroke-linecap="round" stroke-linejoin="round"/>
<path fill-rule="evenodd" clip-rule="evenodd" d="M6.38831 27.814C6.38831 14.9973 11.1862 10.7244 25.5779 10.7244C39.9716 10.7244 44.7675 14.9973 44.7675 27.814C44.7675 40.6306 39.9716 44.9036 25.5779 44.9036C11.1862 44.9036 6.38831 40.6306 6.38831 27.814Z" stroke="#130F26" stroke-width="4.37771" stroke-linecap="round" stroke-linejoin="round"/>
<path d="M32.375 11.186V9.87355C32.375 7.24021 30.4521 5.1048 28.0833 5.1048H23.0729C20.7042 5.1048 18.7812 7.24021 18.7812 9.87355V11.186" stroke="#130F26" stroke-width="4.37771" stroke-linecap="round" stroke-linejoin="round"/>
</svg>
