<svg width="318" height="318" viewBox="0 0 318 318" fill="none" xmlns="http://www.w3.org/2000/svg">
<path d="M164.655 165.357C148.425 174.296 137.497 190.983 137.497 210.107C137.497 210.79 137.507 211.469 137.537 212.143C138.865 244.63 190.446 244.63 191.774 212.143C191.804 211.469 191.814 210.79 191.814 210.107C191.818 190.983 180.886 174.296 164.655 165.357Z" fill="#00A3FF"/>
<path d="M116.311 81.3192C96.5156 92.0184 83.1814 111.989 83.1814 134.877C83.1814 135.696 83.1995 136.508 83.2358 137.321C84.8497 176.196 147.767 176.196 149.387 137.321C149.417 136.508 149.435 135.696 149.435 134.877C149.435 111.989 136.107 92.0184 116.311 81.3192Z" fill="#00A3FF"/>
<path d="M209.72 102.609C195.095 110.633 185.248 125.611 185.248 142.777C185.248 143.391 185.261 144.001 185.283 144.61C186.48 173.766 232.959 173.766 234.156 144.61C234.183 144.001 234.192 143.391 234.192 142.777C234.196 125.611 224.35 110.633 209.72 102.609Z" fill="#00A3FF"/>
</svg>
