<svg width="100" height="101" viewBox="0 0 100 101" fill="none" xmlns="http://www.w3.org/2000/svg">
<circle cx="31.9316" cy="46.25" r="20.25" fill="#ECF2F4"/>
<path d="M87.8539 69.226C87.8539 76.1638 82.2427 81.7881 75.3184 81.7881H29.9584C20.7539 81.7881 13.291 74.3104 13.291 65.0827C13.291 55.8577 20.7539 48.3774 29.9584 48.3774C30.7839 48.3774 31.5953 48.4409 32.3909 48.5565C36.1549 41.0647 43.8959 35.9238 52.8382 35.9238C63.6585 35.9238 72.7231 43.4535 75.1045 53.5695C75.3421 54.5795 75.5138 55.6142 75.6123 56.6683V56.671C82.3976 56.8262 87.8539 62.387 87.8539 69.226Z" fill="url(#paint0_linear_512_28558)" fill-opacity="0.15"/>
<path d="M87.8539 69.226C87.8539 76.1638 82.2427 81.7881 75.3184 81.7881H29.9584C20.7539 81.7881 13.291 74.3104 13.291 65.0827C13.291 55.8577 20.7539 48.3774 29.9584 48.3774C30.7839 48.3774 31.5953 48.4409 32.3909 48.5565C36.1549 41.0647 43.8959 35.9238 52.8382 35.9238C63.6585 35.9238 72.7231 43.4535 75.1045 53.5695C75.3421 54.5795 75.5138 55.6142 75.6123 56.6683V56.671C82.3976 56.8262 87.8539 62.387 87.8539 69.226Z" fill="url(#paint1_linear_512_28558)" fill-opacity="0.8"/>
<path fill-rule="evenodd" clip-rule="evenodd" d="M33.1551 50.0226L32.1982 49.8836C31.4619 49.7767 30.715 49.7185 29.9584 49.7185C21.4974 49.7185 14.6321 56.5954 14.6321 65.0827C14.6321 73.5726 21.4973 80.447 29.9584 80.447H75.3184C81.4993 80.447 86.5129 75.4259 86.5129 69.226C86.5129 63.1151 81.6378 58.1502 75.5816 58.0117L74.2713 57.9817V56.7319C74.1777 55.7616 74.0183 54.8083 73.7991 53.8766C71.5565 44.3506 63.0201 37.2649 52.8382 37.2649C44.4237 37.2649 37.1351 42.101 33.5892 49.1585L33.1551 50.0226ZM75.1045 53.5695C72.7231 43.4535 63.6585 35.9238 52.8382 35.9238C43.8959 35.9238 36.1549 41.0647 32.3909 48.5565C31.5953 48.4409 30.7839 48.3774 29.9584 48.3774C20.7539 48.3774 13.291 55.8577 13.291 65.0827C13.291 74.3104 20.7539 81.7881 29.9584 81.7881H75.3184C82.2427 81.7881 87.8539 76.1638 87.8539 69.226C87.8539 62.387 82.3976 56.8262 75.6123 56.671V56.6683C75.5138 55.6142 75.3421 54.5795 75.1045 53.5695Z" fill="#AAAEB6" fill-opacity="0.15"/>
<path fill-rule="evenodd" clip-rule="evenodd" d="M33.1551 50.0226L32.1982 49.8836C31.4619 49.7767 30.715 49.7185 29.9584 49.7185C21.4974 49.7185 14.6321 56.5954 14.6321 65.0827C14.6321 73.5726 21.4973 80.447 29.9584 80.447H75.3184C81.4993 80.447 86.5129 75.4259 86.5129 69.226C86.5129 63.1151 81.6378 58.1502 75.5816 58.0117L74.2713 57.9817V56.7319C74.1777 55.7616 74.0183 54.8083 73.7991 53.8766C71.5565 44.3506 63.0201 37.2649 52.8382 37.2649C44.4237 37.2649 37.1351 42.101 33.5892 49.1585L33.1551 50.0226ZM75.1045 53.5695C72.7231 43.4535 63.6585 35.9238 52.8382 35.9238C43.8959 35.9238 36.1549 41.0647 32.3909 48.5565C31.5953 48.4409 30.7839 48.3774 29.9584 48.3774C20.7539 48.3774 13.291 55.8577 13.291 65.0827C13.291 74.3104 20.7539 81.7881 29.9584 81.7881H75.3184C82.2427 81.7881 87.8539 76.1638 87.8539 69.226C87.8539 62.387 82.3976 56.8262 75.6123 56.671V56.6683C75.5138 55.6142 75.3421 54.5795 75.1045 53.5695Z" fill="url(#paint2_linear_512_28558)" fill-opacity="0.25"/>
<defs>
<linearGradient id="paint0_linear_512_28558" x1="91.304" y1="85.774" x2="13.1422" y2="49.1308" gradientUnits="userSpaceOnUse">
<stop stop-color="#AAAEB6"/>
<stop offset="1" stop-color="white" stop-opacity="0.51"/>
</linearGradient>
<linearGradient id="paint1_linear_512_28558" x1="29.7175" y1="48.7617" x2="83.8876" y2="81.5349" gradientUnits="userSpaceOnUse">
<stop stop-color="white" stop-opacity="0.9"/>
<stop offset="1" stop-color="white" stop-opacity="0.51"/>
</linearGradient>
<linearGradient id="paint2_linear_512_28558" x1="29.7175" y1="48.7617" x2="83.8876" y2="81.5349" gradientUnits="userSpaceOnUse">
<stop stop-color="white" stop-opacity="0.9"/>
<stop offset="0.948981" stop-color="white" stop-opacity="0.5"/>
</linearGradient>
</defs>
</svg>
