<svg width="102" height="97" viewBox="0 0 102 97" fill="none" xmlns="http://www.w3.org/2000/svg">
<path d="M85.8539 50.226C85.8539 57.1638 80.2427 62.7881 73.3184 62.7881H27.9584C18.7539 62.7881 11.291 55.3104 11.291 46.0827C11.291 36.8577 18.7539 29.3774 27.9584 29.3774C28.7839 29.3774 29.5953 29.4409 30.3909 29.5565C34.1549 22.0647 41.8959 16.9238 50.8382 16.9238C61.6585 16.9238 70.7231 24.4535 73.1045 34.5695C73.3421 35.5795 73.5138 36.6142 73.6123 37.6683V37.671C80.3976 37.8262 85.8539 43.387 85.8539 50.226Z" fill="url(#paint0_linear_568_23347)" fill-opacity="0.2"/>
<path d="M85.8539 50.226C85.8539 57.1638 80.2427 62.7881 73.3184 62.7881H27.9584C18.7539 62.7881 11.291 55.3104 11.291 46.0827C11.291 36.8577 18.7539 29.3774 27.9584 29.3774C28.7839 29.3774 29.5953 29.4409 30.3909 29.5565C34.1549 22.0647 41.8959 16.9238 50.8382 16.9238C61.6585 16.9238 70.7231 24.4535 73.1045 34.5695C73.3421 35.5795 73.5138 36.6142 73.6123 37.6683V37.671C80.3976 37.8262 85.8539 43.387 85.8539 50.226Z" fill="url(#paint1_linear_568_23347)" fill-opacity="0.2"/>
<path fill-rule="evenodd" clip-rule="evenodd" d="M31.1551 31.0226L30.1981 30.8836C29.4619 30.7767 28.715 30.7185 27.9584 30.7185C19.4974 30.7185 12.6321 37.5954 12.6321 46.0827C12.6321 54.5726 19.4973 61.447 27.9584 61.447H73.3184C79.4993 61.447 84.5129 56.4259 84.5129 50.226C84.5129 44.1151 79.6378 39.1502 73.5816 39.0117L72.2713 38.9817V37.7319C72.1777 36.7616 72.0183 35.8083 71.7991 34.8766C69.5565 25.3506 61.0201 18.2649 50.8382 18.2649C42.4237 18.2649 35.1351 23.101 31.5892 30.1585L31.1551 31.0226ZM73.1045 34.5695C70.7231 24.4535 61.6585 16.9238 50.8382 16.9238C41.8959 16.9238 34.1549 22.0647 30.3909 29.5565C29.5953 29.4409 28.7839 29.3774 27.9584 29.3774C18.7539 29.3774 11.291 36.8577 11.291 46.0827C11.291 55.3104 18.7539 62.7881 27.9584 62.7881H73.3184C80.2427 62.7881 85.8539 57.1638 85.8539 50.226C85.8539 43.387 80.3976 37.8262 73.6123 37.671V37.6683C73.5138 36.6142 73.3421 35.5795 73.1045 34.5695Z" fill="url(#paint2_linear_568_23347)"/>
<defs>
<linearGradient id="paint0_linear_568_23347" x1="89.304" y1="66.774" x2="11.1422" y2="30.1308" gradientUnits="userSpaceOnUse">
<stop stop-color="#AAAEB6"/>
<stop offset="1" stop-color="#ECECEC"/>
</linearGradient>
<linearGradient id="paint1_linear_568_23347" x1="27.7175" y1="29.7617" x2="81.8876" y2="62.5349" gradientUnits="userSpaceOnUse">
<stop stop-color="white" stop-opacity="0.9"/>
<stop offset="1" stop-color="white" stop-opacity="0.51"/>
</linearGradient>
<linearGradient id="paint2_linear_568_23347" x1="16.5211" y1="23.8973" x2="48.5725" y2="57.9603" gradientUnits="userSpaceOnUse">
<stop stop-color="#D9E6EA" stop-opacity="0.55"/>
<stop offset="1" stop-color="white" stop-opacity="0.05"/>
</linearGradient>
</defs>
</svg>
