<svg width="100" height="100" viewBox="0 0 100 100" fill="none" xmlns="http://www.w3.org/2000/svg">
<path d="M88.8539 54.226C88.8539 61.1638 83.2427 66.7881 76.3184 66.7881H30.9584C21.7539 66.7881 14.291 59.3104 14.291 50.0827C14.291 40.8577 21.7539 33.3774 30.9584 33.3774C31.7839 33.3774 32.5953 33.4409 33.3909 33.5565C37.1549 26.0647 44.8959 20.9238 53.8382 20.9238C64.6585 20.9238 73.7231 28.4535 76.1045 38.5695C76.3421 39.5795 76.5138 40.6142 76.6123 41.6683V41.671C83.3976 41.8262 88.8539 47.387 88.8539 54.226Z" fill="url(#paint0_linear_512_27976)" fill-opacity="0.15"/>
<path d="M88.8539 54.226C88.8539 61.1638 83.2427 66.7881 76.3184 66.7881H30.9584C21.7539 66.7881 14.291 59.3104 14.291 50.0827C14.291 40.8577 21.7539 33.3774 30.9584 33.3774C31.7839 33.3774 32.5953 33.4409 33.3909 33.5565C37.1549 26.0647 44.8959 20.9238 53.8382 20.9238C64.6585 20.9238 73.7231 28.4535 76.1045 38.5695C76.3421 39.5795 76.5138 40.6142 76.6123 41.6683V41.671C83.3976 41.8262 88.8539 47.387 88.8539 54.226Z" fill="url(#paint1_linear_512_27976)" fill-opacity="0.8"/>
<path fill-rule="evenodd" clip-rule="evenodd" d="M34.1551 35.0226L33.1982 34.8836C32.4619 34.7767 31.715 34.7185 30.9584 34.7185C22.4974 34.7185 15.6321 41.5954 15.6321 50.0827C15.6321 58.5726 22.4973 65.447 30.9584 65.447H76.3184C82.4993 65.447 87.5129 60.4259 87.5129 54.226C87.5129 48.1151 82.6378 43.1502 76.5816 43.0117L75.2713 42.9817V41.7319C75.1777 40.7616 75.0183 39.8083 74.7991 38.8766C72.5565 29.3506 64.0201 22.2649 53.8382 22.2649C45.4237 22.2649 38.1351 27.101 34.5892 34.1585L34.1551 35.0226ZM76.1045 38.5695C73.7231 28.4535 64.6585 20.9238 53.8382 20.9238C44.8959 20.9238 37.1549 26.0647 33.3909 33.5565C32.5953 33.4409 31.7839 33.3774 30.9584 33.3774C21.7539 33.3774 14.291 40.8577 14.291 50.0827C14.291 59.3104 21.7539 66.7881 30.9584 66.7881H76.3184C83.2427 66.7881 88.8539 61.1638 88.8539 54.226C88.8539 47.387 83.3976 41.8262 76.6123 41.671V41.6683C76.5138 40.6142 76.3421 39.5795 76.1045 38.5695Z" fill="url(#paint2_linear_512_27976)"/>
<path d="M82.147 80.6871H18.8385C17.2495 80.6871 15.96 79.5095 15.96 78.0555C15.96 76.6028 17.2495 75.4251 18.8385 75.4251H82.147C83.736 75.4251 85.0241 76.6028 85.0241 78.0555C85.0241 79.5095 83.736 80.6871 82.147 80.6871Z" fill="#AAAEB6" fill-opacity="0.5"/>
<defs>
<linearGradient id="paint0_linear_512_27976" x1="92.304" y1="70.774" x2="14.1422" y2="34.1308" gradientUnits="userSpaceOnUse">
<stop stop-color="#AAAEB6"/>
<stop offset="1" stop-color="white" stop-opacity="0.51"/>
</linearGradient>
<linearGradient id="paint1_linear_512_27976" x1="30.7175" y1="33.7617" x2="84.8876" y2="66.5349" gradientUnits="userSpaceOnUse">
<stop stop-color="white" stop-opacity="0.9"/>
<stop offset="1" stop-color="white" stop-opacity="0.51"/>
</linearGradient>
<linearGradient id="paint2_linear_512_27976" x1="19.5211" y1="27.8973" x2="51.5725" y2="61.9603" gradientUnits="userSpaceOnUse">
<stop stop-color="white"/>
<stop offset="1" stop-color="white" stop-opacity="0"/>
</linearGradient>
</defs>
</svg>
