<svg width="100" height="100" viewBox="0 0 100 100" fill="none" xmlns="http://www.w3.org/2000/svg">
<path d="M87.8539 56.226C87.8539 63.1638 82.2427 68.7881 75.3184 68.7881H29.9584C20.7539 68.7881 13.291 61.3104 13.291 52.0827C13.291 42.8577 20.7539 35.3774 29.9584 35.3774C30.7839 35.3774 31.5953 35.4409 32.3909 35.5565C36.1549 28.0647 43.8959 22.9238 52.8382 22.9238C63.6585 22.9238 72.7231 30.4535 75.1045 40.5695C75.3421 41.5795 75.5138 42.6142 75.6123 43.6683V43.671C82.3976 43.8262 87.8539 49.387 87.8539 56.226Z" fill="url(#paint0_linear_512_28510)" fill-opacity="0.8"/>
<path d="M87.8539 56.226C87.8539 63.1638 82.2427 68.7881 75.3184 68.7881H29.9584C20.7539 68.7881 13.291 61.3104 13.291 52.0827C13.291 42.8577 20.7539 35.3774 29.9584 35.3774C30.7839 35.3774 31.5953 35.4409 32.3909 35.5565C36.1549 28.0647 43.8959 22.9238 52.8382 22.9238C63.6585 22.9238 72.7231 30.4535 75.1045 40.5695C75.3421 41.5795 75.5138 42.6142 75.6123 43.6683V43.671C82.3976 43.8262 87.8539 49.387 87.8539 56.226Z" fill="url(#paint1_linear_512_28510)" fill-opacity="0.35"/>
<path fill-rule="evenodd" clip-rule="evenodd" d="M33.1551 37.0226L32.1982 36.8836C31.4619 36.7767 30.715 36.7185 29.9584 36.7185C21.4974 36.7185 14.6321 43.5954 14.6321 52.0827C14.6321 60.5726 21.4973 67.447 29.9584 67.447H75.3184C81.4993 67.447 86.5129 62.4259 86.5129 56.226C86.5129 50.1151 81.6378 45.1502 75.5816 45.0117L74.2713 44.9817V43.7319C74.1777 42.7616 74.0183 41.8083 73.7991 40.8766C71.5565 31.3506 63.0201 24.2649 52.8382 24.2649C44.4237 24.2649 37.1351 29.101 33.5892 36.1585L33.1551 37.0226ZM75.1045 40.5695C72.7231 30.4535 63.6585 22.9238 52.8382 22.9238C43.8959 22.9238 36.1549 28.0647 32.3909 35.5565C31.5953 35.4409 30.7839 35.3774 29.9584 35.3774C20.7539 35.3774 13.291 42.8577 13.291 52.0827C13.291 61.3104 20.7539 68.7881 29.9584 68.7881H75.3184C82.2427 68.7881 87.8539 63.1638 87.8539 56.226C87.8539 49.387 82.3976 43.8262 75.6123 43.671V43.6683C75.5138 42.6142 75.3421 41.5795 75.1045 40.5695Z" fill="url(#paint2_linear_512_28510)"/>
<path d="M40.9586 68.9998C38.4453 71.5132 35.3042 72.7656 35.3042 76.968C35.3042 77.1182 35.3073 76.969 35.3135 77.1182C35.5889 84.2559 46.3273 84.2559 46.6038 77.1182C46.6089 76.969 46.612 77.1182 46.612 76.968C46.612 72.7656 43.1923 71.2335 40.9586 68.9998Z" fill="#AAAEB6"/>
<path d="M24.6544 75.5217C22.1411 78.035 19 79.2874 19 83.4898C19 83.6401 19.0031 83.4909 19.0093 83.6401C19.2847 90.7778 30.0231 90.7778 30.2996 83.6401C30.3047 83.4909 30.3078 83.6401 30.3078 83.4898C30.3078 79.2874 26.8881 77.7553 24.6544 75.5217Z" fill="#AAAEB6"/>
<path d="M73.3903 68.9998C70.8769 71.5132 67.7358 72.7656 67.7358 76.968C67.7358 77.1182 67.7389 76.969 67.7451 77.1182C68.0206 84.2559 78.7589 84.2559 79.0354 77.1182C79.0406 76.969 79.0437 77.1182 79.0437 76.968C79.0437 72.7656 75.6239 71.2335 73.3903 68.9998Z" fill="#AAAEB6"/>
<path d="M57.2631 75.5217C54.7497 78.035 51.6086 79.2874 51.6086 83.4898C51.6086 83.6401 51.6117 83.4909 51.6179 83.6401C51.8934 90.7778 62.6317 90.7778 62.9082 83.6401C62.9134 83.4909 62.9165 83.6401 62.9165 83.4898C62.9165 79.2874 59.4967 77.7553 57.2631 75.5217Z" fill="#AAAEB6"/>
<defs>
<linearGradient id="paint0_linear_512_28510" x1="87.854" y1="73.9908" x2="13.1298" y2="36.1316" gradientUnits="userSpaceOnUse">
<stop stop-color="#384153" stop-opacity="0.5"/>
<stop offset="1" stop-color="#BAC7CB" stop-opacity="0.5"/>
</linearGradient>
<linearGradient id="paint1_linear_512_28510" x1="29.7175" y1="35.7617" x2="83.8876" y2="68.5349" gradientUnits="userSpaceOnUse">
<stop stop-color="#D9E6EA"/>
<stop offset="1" stop-color="white" stop-opacity="0.51"/>
</linearGradient>
<linearGradient id="paint2_linear_512_28510" x1="18.5211" y1="29.8973" x2="50.5725" y2="63.9603" gradientUnits="userSpaceOnUse">
<stop stop-color="#D9E6EA" stop-opacity="0.55"/>
<stop offset="1" stop-color="white" stop-opacity="0.05"/>
</linearGradient>
</defs>
</svg>
