<svg width="100" height="100" viewBox="0 0 100 100" fill="none" xmlns="http://www.w3.org/2000/svg">
<circle cx="32.9316" cy="29.25" r="20.25" fill="#FFC34D"/>
<path d="M88.8539 52.226C88.8539 59.1638 83.2427 64.7881 76.3184 64.7881H30.9584C21.7539 64.7881 14.291 57.3104 14.291 48.0827C14.291 38.8577 21.7539 31.3774 30.9584 31.3774C31.7839 31.3774 32.5953 31.4409 33.3909 31.5565C37.1549 24.0647 44.8959 18.9238 53.8382 18.9238C64.6585 18.9238 73.7231 26.4535 76.1045 36.5695C76.3421 37.5795 76.5138 38.6142 76.6123 39.6683V39.671C83.3976 39.8262 88.8539 45.387 88.8539 52.226Z" fill="url(#paint0_linear_568_23413)" fill-opacity="0.8"/>
<path d="M88.8539 52.226C88.8539 59.1638 83.2427 64.7881 76.3184 64.7881H30.9584C21.7539 64.7881 14.291 57.3104 14.291 48.0827C14.291 38.8577 21.7539 31.3774 30.9584 31.3774C31.7839 31.3774 32.5953 31.4409 33.3909 31.5565C37.1549 24.0647 44.8959 18.9238 53.8382 18.9238C64.6585 18.9238 73.7231 26.4535 76.1045 36.5695C76.3421 37.5795 76.5138 38.6142 76.6123 39.6683V39.671C83.3976 39.8262 88.8539 45.387 88.8539 52.226Z" fill="url(#paint1_linear_568_23413)" fill-opacity="0.05"/>
<path fill-rule="evenodd" clip-rule="evenodd" d="M34.1551 33.0226L33.1982 32.8836C32.4619 32.7767 31.715 32.7185 30.9584 32.7185C22.4974 32.7185 15.6321 39.5954 15.6321 48.0827C15.6321 56.5726 22.4973 63.447 30.9584 63.447H76.3184C82.4993 63.447 87.5129 58.4259 87.5129 52.226C87.5129 46.1151 82.6378 41.1502 76.5816 41.0117L75.2713 40.9817V39.7319C75.1777 38.7616 75.0183 37.8083 74.7991 36.8766C72.5565 27.3506 64.0201 20.2649 53.8382 20.2649C45.4237 20.2649 38.1351 25.101 34.5892 32.1585L34.1551 33.0226ZM76.1045 36.5695C73.7231 26.4535 64.6585 18.9238 53.8382 18.9238C44.8959 18.9238 37.1549 24.0647 33.3909 31.5565C32.5953 31.4409 31.7839 31.3774 30.9584 31.3774C21.7539 31.3774 14.291 38.8577 14.291 48.0827C14.291 57.3104 21.7539 64.7881 30.9584 64.7881H76.3184C83.2427 64.7881 88.8539 59.1638 88.8539 52.226C88.8539 45.387 83.3976 39.8262 76.6123 39.671V39.6683C76.5138 38.6142 76.3421 37.5795 76.1045 36.5695Z" fill="url(#paint2_linear_568_23413)"/>
<path d="M60.0665 48.6548C60.8558 47.4512 59.3811 46.0455 58.2892 46.9606L46.6584 56.7078C45.9209 57.3259 46.3427 58.5613 47.2914 58.5613C48.1518 58.5613 48.6155 59.6075 48.0547 60.2837L42.2443 67.2896C41.5642 68.1097 42.1265 69.3787 43.1701 69.3787H43.4826C44.4636 69.3787 45.0439 70.5169 44.4908 71.3564L41.2047 76.3446C40.4397 77.5059 41.8002 78.8998 42.9123 78.0942L54.7978 69.4838C55.6188 68.8891 55.2126 67.5529 54.2109 67.5529C53.328 67.5529 52.8588 66.4728 53.4442 65.788L58.9819 59.31C59.6795 58.4939 59.1203 57.2067 58.0681 57.2067H56.7631C55.7833 57.2067 55.2028 56.0708 55.7535 55.2311L60.0665 48.6548Z" fill="url(#paint3_radial_568_23413)"/>
<defs>
<linearGradient id="paint0_linear_568_23413" x1="88.854" y1="69.9908" x2="14.1298" y2="32.1316" gradientUnits="userSpaceOnUse">
<stop stop-color="#5C5C5C"/>
<stop offset="1" stop-color="#384153" stop-opacity="0.25"/>
</linearGradient>
<linearGradient id="paint1_linear_568_23413" x1="30.7175" y1="31.7617" x2="84.8876" y2="64.5349" gradientUnits="userSpaceOnUse">
<stop stop-color="white" stop-opacity="0.9"/>
<stop offset="1" stop-color="white" stop-opacity="0.51"/>
</linearGradient>
<linearGradient id="paint2_linear_568_23413" x1="19.5211" y1="25.8973" x2="51.5725" y2="59.9603" gradientUnits="userSpaceOnUse">
<stop stop-color="white"/>
<stop offset="1" stop-color="white" stop-opacity="0"/>
</linearGradient>
<radialGradient id="paint3_radial_568_23413" cx="0" cy="0" r="1" gradientUnits="userSpaceOnUse" gradientTransform="translate(51.0717 61.822) rotate(90) scale(28.1663 18.9726)">
<stop stop-color="#FFD88B"/>
<stop offset="1" stop-color="#FFA900"/>
</radialGradient>
</defs>
</svg>
