<svg width="100" height="99" viewBox="0 0 100 99" fill="none" xmlns="http://www.w3.org/2000/svg">
<path d="M86.8539 48.226C86.8539 55.1638 81.2427 60.7881 74.3184 60.7881H28.9584C19.7539 60.7881 12.291 53.3104 12.291 44.0827C12.291 34.8577 19.7539 27.3774 28.9584 27.3774C29.7839 27.3774 30.5953 27.4409 31.3909 27.5565C35.1549 20.0647 42.8959 14.9238 51.8382 14.9238C62.6585 14.9238 71.7231 22.4535 74.1045 32.5695C74.3421 33.5795 74.5138 34.6142 74.6123 35.6683V35.671C81.3976 35.8262 86.8539 41.387 86.8539 48.226Z" fill="url(#paint0_linear_568_23414)" fill-opacity="0.8"/>
<path d="M86.8539 48.226C86.8539 55.1638 81.2427 60.7881 74.3184 60.7881H28.9584C19.7539 60.7881 12.291 53.3104 12.291 44.0827C12.291 34.8577 19.7539 27.3774 28.9584 27.3774C29.7839 27.3774 30.5953 27.4409 31.3909 27.5565C35.1549 20.0647 42.8959 14.9238 51.8382 14.9238C62.6585 14.9238 71.7231 22.4535 74.1045 32.5695C74.3421 33.5795 74.5138 34.6142 74.6123 35.6683V35.671C81.3976 35.8262 86.8539 41.387 86.8539 48.226Z" fill="url(#paint1_linear_568_23414)" fill-opacity="0.35"/>
<path fill-rule="evenodd" clip-rule="evenodd" d="M32.1551 29.0226L31.1982 28.8836C30.4619 28.7767 29.715 28.7185 28.9584 28.7185C20.4974 28.7185 13.6321 35.5954 13.6321 44.0827C13.6321 52.5726 20.4973 59.447 28.9584 59.447H74.3184C80.4993 59.447 85.5129 54.4259 85.5129 48.226C85.5129 42.1151 80.6378 37.1502 74.5816 37.0117L73.2713 36.9817V35.7319C73.1777 34.7616 73.0183 33.8083 72.7991 32.8766C70.5565 23.3506 62.0201 16.2649 51.8382 16.2649C43.4237 16.2649 36.1351 21.101 32.5892 28.1585L32.1551 29.0226ZM74.1045 32.5695C71.7231 22.4535 62.6585 14.9238 51.8382 14.9238C42.8959 14.9238 35.1549 20.0647 31.3909 27.5565C30.5953 27.4409 29.7839 27.3774 28.9584 27.3774C19.7539 27.3774 12.291 34.8577 12.291 44.0827C12.291 53.3104 19.7539 60.7881 28.9584 60.7881H74.3184C81.2427 60.7881 86.8539 55.1638 86.8539 48.226C86.8539 41.387 81.3976 35.8262 74.6123 35.671V35.6683C74.5138 34.6142 74.3421 33.5795 74.1045 32.5695Z" fill="url(#paint2_linear_568_23414)"/>
<path d="M78.3665 75.8754H48.6793C47.5988 75.8754 46.7219 74.5555 46.7219 72.9259C46.7219 71.2978 47.5988 69.9779 48.6793 69.9779H78.3665C79.4469 69.9779 80.3229 71.2978 80.3229 72.9259C80.3229 74.5555 79.4469 75.8754 78.3665 75.8754Z" fill="#AAAEB6" fill-opacity="0.5"/>
<path d="M71.7136 86.5646L55.7237 86.5646C54.6433 86.5646 53.7664 85.2447 53.7664 83.6151C53.7664 81.987 54.6433 80.6671 55.7237 80.6671L71.7136 80.6671C72.7941 80.6671 73.67 81.987 73.67 83.6151C73.67 85.2447 72.7941 86.5646 71.7136 86.5646Z" fill="#AAAEB6" fill-opacity="0.5"/>
<path d="M37.4955 69.37C37.018 68.5191 35.9617 68.2274 35.1352 68.7181C33.5721 69.6475 31.5918 68.5211 31.5918 66.7025V66.612C31.5918 65.6296 30.8178 64.8328 29.8637 64.8328C28.9097 64.8328 28.1357 65.6296 28.1357 66.612V66.7025C28.1357 68.5211 26.1554 69.6475 24.5923 68.7181C23.7658 68.2274 22.7094 68.5191 22.232 69.37C21.7545 70.2209 22.0378 71.3086 22.8642 71.8002C24.4619 72.7498 24.4619 75.0628 22.8642 76.0124C22.0378 76.504 21.7545 77.5917 22.232 78.4426C22.552 79.0135 23.1327 79.3332 23.73 79.3332C24.023 79.3332 24.3203 79.2557 24.5923 79.0946C26.1554 78.1651 28.1357 79.2916 28.1357 81.1101V81.2006C28.1357 82.183 28.9097 82.9799 29.8637 82.9799C30.8178 82.9799 31.5918 82.183 31.5918 81.2006V81.1106C31.5918 79.292 33.5719 78.1654 35.1352 79.0946C35.4072 79.2566 35.7045 79.3332 35.9975 79.3332C36.5948 79.3332 37.1755 79.0135 37.4955 78.4435C37.9721 77.5926 37.6897 76.504 36.8633 76.0133C35.2656 75.0633 35.2654 72.7499 36.8633 71.8002C37.6897 71.3086 37.973 70.2209 37.4955 69.37Z" fill="#818494"/>
<defs>
<linearGradient id="paint0_linear_568_23414" x1="86.854" y1="65.9908" x2="12.1298" y2="28.1316" gradientUnits="userSpaceOnUse">
<stop stop-color="#384153" stop-opacity="0.5"/>
<stop offset="1" stop-color="#BAC7CB" stop-opacity="0.5"/>
</linearGradient>
<linearGradient id="paint1_linear_568_23414" x1="28.7175" y1="27.7617" x2="82.8876" y2="60.5349" gradientUnits="userSpaceOnUse">
<stop stop-color="#D9E6EA"/>
<stop offset="1" stop-color="white" stop-opacity="0.51"/>
</linearGradient>
<linearGradient id="paint2_linear_568_23414" x1="17.5211" y1="21.8973" x2="49.5725" y2="55.9603" gradientUnits="userSpaceOnUse">
<stop stop-color="#D9E6EA" stop-opacity="0.55"/>
<stop offset="1" stop-color="white" stop-opacity="0.05"/>
</linearGradient>
</defs>
</svg>
