<svg width="100" height="100" viewBox="0 0 100 100" fill="none" xmlns="http://www.w3.org/2000/svg">
<path d="M87.8539 56.226C87.8539 63.1638 82.2427 68.7881 75.3184 68.7881H29.9584C20.7539 68.7881 13.291 61.3104 13.291 52.0827C13.291 42.8577 20.7539 35.3774 29.9584 35.3774C30.7839 35.3774 31.5953 35.4409 32.3909 35.5565C36.1549 28.0647 43.8959 22.9238 52.8382 22.9238C63.6585 22.9238 72.7231 30.4535 75.1045 40.5695C75.3421 41.5795 75.5138 42.6142 75.6123 43.6683V43.671C82.3976 43.8262 87.8539 49.387 87.8539 56.226Z" fill="url(#paint0_linear_512_28494)" fill-opacity="0.8"/>
<path d="M87.8539 56.226C87.8539 63.1638 82.2427 68.7881 75.3184 68.7881H29.9584C20.7539 68.7881 13.291 61.3104 13.291 52.0827C13.291 42.8577 20.7539 35.3774 29.9584 35.3774C30.7839 35.3774 31.5953 35.4409 32.3909 35.5565C36.1549 28.0647 43.8959 22.9238 52.8382 22.9238C63.6585 22.9238 72.7231 30.4535 75.1045 40.5695C75.3421 41.5795 75.5138 42.6142 75.6123 43.6683V43.671C82.3976 43.8262 87.8539 49.387 87.8539 56.226Z" fill="url(#paint1_linear_512_28494)" fill-opacity="0.35"/>
<path fill-rule="evenodd" clip-rule="evenodd" d="M33.1551 37.0226L32.1982 36.8836C31.4619 36.7767 30.715 36.7185 29.9584 36.7185C21.4974 36.7185 14.6321 43.5954 14.6321 52.0827C14.6321 60.5726 21.4973 67.447 29.9584 67.447H75.3184C81.4993 67.447 86.5129 62.4259 86.5129 56.226C86.5129 50.1151 81.6378 45.1502 75.5816 45.0117L74.2713 44.9817V43.7319C74.1777 42.7616 74.0183 41.8083 73.7991 40.8766C71.5565 31.3506 63.0201 24.2649 52.8382 24.2649C44.4237 24.2649 37.1351 29.101 33.5892 36.1585L33.1551 37.0226ZM75.1045 40.5695C72.7231 30.4535 63.6585 22.9238 52.8382 22.9238C43.8959 22.9238 36.1549 28.0647 32.3909 35.5565C31.5953 35.4409 30.7839 35.3774 29.9584 35.3774C20.7539 35.3774 13.291 42.8577 13.291 52.0827C13.291 61.3104 20.7539 68.7881 29.9584 68.7881H75.3184C82.2427 68.7881 87.8539 63.1638 87.8539 56.226C87.8539 49.387 82.3976 43.8262 75.6123 43.671V43.6683C75.5138 42.6142 75.3421 41.5795 75.1045 40.5695Z" fill="url(#paint2_linear_512_28494)"/>
<path d="M81.6441 79.0406H31.8958C30.0852 79.0406 28.6157 77.6986 28.6157 76.0418C28.6157 74.3864 30.0852 73.0444 31.8958 73.0444H81.6441C83.4547 73.0444 84.9226 74.3864 84.9226 76.0418C84.9226 77.6986 83.4547 79.0406 81.6441 79.0406Z" fill="#AAAEB6" fill-opacity="0.5"/>
<path d="M70.4955 89.9085L43.7005 89.9085C41.8899 89.9085 40.4204 88.5665 40.4204 86.9097C40.4204 85.2543 41.8899 83.9124 43.7005 83.9124L70.4955 83.9124C72.3061 83.9124 73.774 85.2543 73.774 86.9097C73.774 88.5665 72.3061 89.9085 70.4955 89.9085Z" fill="#AAAEB6" fill-opacity="0.5"/>
<path d="M38.0907 77.6128C37.564 76.7146 36.3989 76.4067 35.4874 76.9247L35.4443 76.9492C33.7203 77.9303 31.5792 76.6852 31.5792 74.7016C31.5792 73.6646 30.7255 72.8235 29.6733 72.8235C28.621 72.8235 27.7674 73.6646 27.7674 74.7016C27.7674 76.6852 25.6262 77.9303 23.9022 76.9492L23.8591 76.9247C22.9476 76.4067 21.7825 76.7146 21.2558 77.6128C20.7292 78.511 21.0417 79.6591 21.9532 80.178C23.6773 81.1587 23.6773 83.6435 21.9532 84.6242C21.0417 85.1432 20.7292 86.2913 21.2558 87.1895C21.6089 87.7921 22.2493 88.1295 22.9081 88.1295C23.2312 88.1295 23.5591 88.0477 23.8591 87.8776L23.9022 87.8531C25.6262 86.872 27.7674 88.1171 27.7674 90.1007C27.7674 91.1376 28.621 91.9788 29.6733 91.9788C30.7255 91.9788 31.5792 91.1376 31.5792 90.1007C31.5792 88.1173 33.7199 86.8722 35.4439 87.8528L35.4874 87.8776C35.7874 88.0487 36.1153 88.1295 36.4384 88.1295C37.0972 88.1295 37.7376 87.7921 38.0907 87.1904C38.6163 86.2923 38.3048 85.1432 37.3933 84.6252C35.6692 83.6441 35.6691 81.1588 37.3933 80.178C38.3048 79.6591 38.6173 78.511 38.0907 77.6128Z" fill="#818494"/>
<path d="M65.4437 77.6128C64.9171 76.7146 63.7519 76.4067 62.8404 76.9247L62.7973 76.9492C61.0733 77.9303 58.9322 76.6852 58.9322 74.7016C58.9322 73.6646 58.0786 72.8235 57.0263 72.8235C55.974 72.8235 55.1204 73.6646 55.1204 74.7016C55.1204 76.6852 52.9793 77.9303 51.2553 76.9492L51.2121 76.9247C50.3007 76.4067 49.1355 76.7146 48.6089 77.6128C48.0822 78.511 48.3948 79.6591 49.3062 80.178C51.0303 81.1587 51.0303 83.6435 49.3062 84.6242C48.3948 85.1432 48.0822 86.2913 48.6089 87.1895C48.9619 87.7921 49.6023 88.1295 50.2611 88.1295C50.5842 88.1295 50.9122 88.0477 51.2121 87.8776L51.2553 87.8531C52.9793 86.872 55.1204 88.1171 55.1204 90.1007C55.1204 91.1376 55.974 91.9788 57.0263 91.9788C58.0786 91.9788 58.9322 91.1376 58.9322 90.1007C58.9322 88.1173 61.0729 86.8722 62.7969 87.8528L62.8404 87.8776C63.1404 88.0487 63.4683 88.1295 63.7915 88.1295C64.4502 88.1295 65.0907 87.7921 65.4437 87.1904C65.9693 86.2923 65.6578 85.1432 64.7463 84.6252C63.0223 83.6441 63.0221 81.1588 64.7463 80.178C65.6578 79.6591 65.9703 78.511 65.4437 77.6128Z" fill="#818494"/>
<defs>
<linearGradient id="paint0_linear_512_28494" x1="87.854" y1="73.9908" x2="13.1298" y2="36.1316" gradientUnits="userSpaceOnUse">
<stop stop-color="#384153" stop-opacity="0.5"/>
<stop offset="1" stop-color="#BAC7CB" stop-opacity="0.5"/>
</linearGradient>
<linearGradient id="paint1_linear_512_28494" x1="29.7175" y1="35.7617" x2="83.8876" y2="68.5349" gradientUnits="userSpaceOnUse">
<stop stop-color="#D9E6EA"/>
<stop offset="1" stop-color="white" stop-opacity="0.51"/>
</linearGradient>
<linearGradient id="paint2_linear_512_28494" x1="18.5211" y1="29.8973" x2="50.5725" y2="63.9603" gradientUnits="userSpaceOnUse">
<stop stop-color="#D9E6EA" stop-opacity="0.55"/>
<stop offset="1" stop-color="white" stop-opacity="0.05"/>
</linearGradient>
</defs>
</svg>
