<svg width="100" height="100" viewBox="0 0 100 100" fill="none" xmlns="http://www.w3.org/2000/svg">
<path d="M85.0732 49.7981C85.0732 56.6672 79.5175 62.2358 72.6618 62.2358H27.7509C18.6375 62.2358 11.2485 54.8322 11.2485 45.6959C11.2485 36.5622 18.6375 29.156 27.7509 29.156C28.5683 29.156 29.3716 29.2188 30.1593 29.3333C33.8861 21.9157 41.5504 16.8257 50.4042 16.8257C61.1173 16.8257 70.0922 24.2808 72.45 34.2966C72.6853 35.2966 72.8552 36.3211 72.9528 37.3648V37.3674C79.6709 37.5211 85.0732 43.0269 85.0732 49.7981Z" fill="url(#paint0_linear_512_27765)" fill-opacity="0.2"/>
<path d="M85.0732 49.7981C85.0732 56.6672 79.5175 62.2358 72.6618 62.2358H27.7509C18.6375 62.2358 11.2485 54.8322 11.2485 45.6959C11.2485 36.5622 18.6375 29.156 27.7509 29.156C28.5683 29.156 29.3716 29.2188 30.1593 29.3333C33.8861 21.9157 41.5504 16.8257 50.4042 16.8257C61.1173 16.8257 70.0922 24.2808 72.45 34.2966C72.6853 35.2966 72.8552 36.3211 72.9528 37.3648V37.3674C79.6709 37.5211 85.0732 43.0269 85.0732 49.7981Z" fill="url(#paint1_linear_512_27765)" fill-opacity="0.2"/>
<path fill-rule="evenodd" clip-rule="evenodd" d="M30.916 30.7849L29.9685 30.6472C29.2395 30.5414 28.5 30.4837 27.7509 30.4837C19.3737 30.4837 12.5763 37.2926 12.5763 45.6959C12.5763 54.1017 19.3736 60.908 27.7509 60.908H72.6618C78.7815 60.908 83.7454 55.9366 83.7454 49.7981C83.7454 43.7478 78.9186 38.832 72.9224 38.6948L71.625 38.6652V37.4277C71.5324 36.4671 71.3746 35.5232 71.1575 34.6007C68.9371 25.169 60.4852 18.1535 50.4042 18.1535C42.073 18.1535 34.8565 22.9417 31.3458 29.9294L30.916 30.7849ZM72.45 34.2966C70.0922 24.2808 61.1173 16.8257 50.4042 16.8257C41.5504 16.8257 33.8861 21.9157 30.1593 29.3333C29.3716 29.2188 28.5683 29.156 27.7509 29.156C18.6375 29.156 11.2485 36.5622 11.2485 45.6959C11.2485 54.8322 18.6375 62.2358 27.7509 62.2358H72.6618C79.5175 62.2358 85.0732 56.6672 85.0732 49.7981C85.0732 43.0269 79.6709 37.5211 72.9528 37.3674V37.3648C72.8552 36.3211 72.6853 35.2966 72.45 34.2966Z" fill="url(#paint2_linear_512_27765)"/>
<path d="M74.7432 78.1197H24.9949C23.1843 78.1197 21.7148 76.7777 21.7148 75.1209C21.7148 73.4655 23.1843 72.1235 24.9949 72.1235H74.7432C76.5538 72.1235 78.0217 73.4655 78.0217 75.1209C78.0217 76.7777 76.5538 78.1197 74.7432 78.1197Z" fill="#AAAEB6" fill-opacity="0.5"/>
<path d="M63.5946 88.9876L36.7996 88.9876C34.989 88.9876 33.5195 87.6456 33.5195 85.9888C33.5195 84.3334 34.989 82.9915 36.7996 82.9915L63.5946 82.9915C65.4052 82.9915 66.8731 84.3334 66.8731 85.9888C66.8731 87.6456 65.4052 88.9876 63.5946 88.9876Z" fill="#AAAEB6" fill-opacity="0.5"/>
<defs>
<linearGradient id="paint0_linear_512_27765" x1="88.4891" y1="66.1823" x2="11.1012" y2="29.9019" gradientUnits="userSpaceOnUse">
<stop stop-color="#AAAEB6"/>
<stop offset="1" stop-color="#ECECEC"/>
</linearGradient>
<linearGradient id="paint1_linear_512_27765" x1="27.5124" y1="29.5364" x2="81.1462" y2="61.9851" gradientUnits="userSpaceOnUse">
<stop stop-color="white" stop-opacity="0.9"/>
<stop offset="1" stop-color="white" stop-opacity="0.51"/>
</linearGradient>
<linearGradient id="paint2_linear_512_27765" x1="16.4269" y1="23.7302" x2="48.1609" y2="57.4558" gradientUnits="userSpaceOnUse">
<stop stop-color="#D9E6EA" stop-opacity="0.55"/>
<stop offset="1" stop-color="white" stop-opacity="0.05"/>
</linearGradient>
</defs>
</svg>
