<svg width="100" height="100" viewBox="0 0 100 100" fill="none" xmlns="http://www.w3.org/2000/svg">
<path d="M88.0732 51.7981C88.0732 58.6672 82.5175 64.2358 75.6618 64.2358H30.7509C21.6375 64.2358 14.2485 56.8322 14.2485 47.6959C14.2485 38.5622 21.6375 31.156 30.7509 31.156C31.5683 31.156 32.3716 31.2188 33.1593 31.3333C36.8861 23.9157 44.5504 18.8257 53.4042 18.8257C64.1173 18.8257 73.0922 26.2808 75.45 36.2966C75.6853 37.2966 75.8552 38.3211 75.9528 39.3648V39.3674C82.6709 39.5211 88.0732 45.0269 88.0732 51.7981Z" fill="url(#paint0_linear_512_27947)" fill-opacity="0.8"/>
<path d="M88.0732 51.7981C88.0732 58.6672 82.5175 64.2358 75.6618 64.2358H30.7509C21.6375 64.2358 14.2485 56.8322 14.2485 47.6959C14.2485 38.5622 21.6375 31.156 30.7509 31.156C31.5683 31.156 32.3716 31.2188 33.1593 31.3333C36.8861 23.9157 44.5504 18.8257 53.4042 18.8257C64.1173 18.8257 73.0922 26.2808 75.45 36.2966C75.6853 37.2966 75.8552 38.3211 75.9528 39.3648V39.3674C82.6709 39.5211 88.0732 45.0269 88.0732 51.7981Z" fill="url(#paint1_linear_512_27947)" fill-opacity="0.35"/>
<path fill-rule="evenodd" clip-rule="evenodd" d="M33.916 32.7849L32.9685 32.6472C32.2395 32.5414 31.5 32.4837 30.7509 32.4837C22.3737 32.4837 15.5763 39.2926 15.5763 47.6959C15.5763 56.1017 22.3736 62.908 30.7509 62.908H75.6618C81.7815 62.908 86.7454 57.9366 86.7454 51.7981C86.7454 45.7478 81.9186 40.832 75.9224 40.6948L74.625 40.6652V39.4277C74.5324 38.4671 74.3746 37.5232 74.1575 36.6007C71.9371 27.169 63.4852 20.1535 53.4042 20.1535C45.073 20.1535 37.8565 24.9417 34.3458 31.9294L33.916 32.7849ZM75.45 36.2966C73.0922 26.2808 64.1173 18.8257 53.4042 18.8257C44.5504 18.8257 36.8861 23.9157 33.1593 31.3333C32.3716 31.2188 31.5683 31.156 30.7509 31.156C21.6375 31.156 14.2485 38.5622 14.2485 47.6959C14.2485 56.8322 21.6375 64.2358 30.7509 64.2358H75.6618C82.5175 64.2358 88.0732 58.6672 88.0732 51.7981C88.0732 45.0269 82.6709 39.5211 75.9528 39.3674V39.3648C75.8552 38.3211 75.6853 37.2966 75.45 36.2966Z" fill="url(#paint2_linear_512_27947)"/>
<path d="M42.9586 64C40.4453 66.5134 37.3042 67.7658 37.3042 71.9682C37.3042 72.1184 37.3073 71.9692 37.3135 72.1184C37.5889 79.2561 48.3273 79.2561 48.6038 72.1184C48.6089 71.9692 48.612 72.1184 48.612 71.9682C48.612 67.7658 45.1923 66.2336 42.9586 64Z" fill="#AAAEB6"/>
<path d="M26.6544 70.5215C24.1411 73.0349 21 74.2872 21 78.4897C21 78.6399 21.0031 78.4907 21.0093 78.6399C21.2847 85.7776 32.0231 85.7776 32.2996 78.6399C32.3047 78.4907 32.3078 78.6399 32.3078 78.4897C32.3078 74.2872 28.8881 72.7551 26.6544 70.5215Z" fill="#AAAEB6"/>
<path d="M75.3903 64C72.8769 66.5134 69.7358 67.7658 69.7358 71.9682C69.7358 72.1184 69.7389 71.9692 69.7451 72.1184C70.0206 79.2561 80.7589 79.2561 81.0354 72.1184C81.0406 71.9692 81.0437 72.1184 81.0437 71.9682C81.0437 67.7658 77.6239 66.2336 75.3903 64Z" fill="#AAAEB6"/>
<path d="M59.2631 70.5215C56.7497 73.0349 53.6086 74.2872 53.6086 78.4897C53.6086 78.6399 53.6117 78.4907 53.6179 78.6399C53.8934 85.7776 64.6317 85.7776 64.9082 78.6399C64.9134 78.4907 64.9165 78.6399 64.9165 78.4897C64.9165 74.2872 61.4967 72.7551 59.2631 70.5215Z" fill="#AAAEB6"/>
<defs>
<linearGradient id="paint0_linear_512_27947" x1="88.0732" y1="69.3871" x2="14.0889" y2="31.9027" gradientUnits="userSpaceOnUse">
<stop stop-color="#384153" stop-opacity="0.5"/>
<stop offset="1" stop-color="#BAC7CB" stop-opacity="0.5"/>
</linearGradient>
<linearGradient id="paint1_linear_512_27947" x1="30.5124" y1="31.5364" x2="84.1462" y2="63.9851" gradientUnits="userSpaceOnUse">
<stop stop-color="#D9E6EA"/>
<stop offset="1" stop-color="white" stop-opacity="0.51"/>
</linearGradient>
<linearGradient id="paint2_linear_512_27947" x1="19.4269" y1="25.7302" x2="51.1609" y2="59.4558" gradientUnits="userSpaceOnUse">
<stop stop-color="#D9E6EA" stop-opacity="0.55"/>
<stop offset="1" stop-color="white" stop-opacity="0.05"/>
</linearGradient>
</defs>
</svg>
