<svg width="100" height="100" viewBox="0 0 100 100" fill="none" xmlns="http://www.w3.org/2000/svg">
<path d="M87.8539 56.226C87.8539 63.1638 82.2427 68.7881 75.3184 68.7881H29.9584C20.7539 68.7881 13.291 61.3104 13.291 52.0827C13.291 42.8577 20.7539 35.3774 29.9584 35.3774C30.7839 35.3774 31.5953 35.4409 32.3909 35.5565C36.1549 28.0647 43.8959 22.9238 52.8382 22.9238C63.6585 22.9238 72.7231 30.4535 75.1045 40.5695C75.3421 41.5795 75.5138 42.6142 75.6123 43.6683V43.671C82.3976 43.8262 87.8539 49.387 87.8539 56.226Z" fill="url(#paint0_linear_512_28350)" fill-opacity="0.15"/>
<path d="M87.8539 56.226C87.8539 63.1638 82.2427 68.7881 75.3184 68.7881H29.9584C20.7539 68.7881 13.291 61.3104 13.291 52.0827C13.291 42.8577 20.7539 35.3774 29.9584 35.3774C30.7839 35.3774 31.5953 35.4409 32.3909 35.5565C36.1549 28.0647 43.8959 22.9238 52.8382 22.9238C63.6585 22.9238 72.7231 30.4535 75.1045 40.5695C75.3421 41.5795 75.5138 42.6142 75.6123 43.6683V43.671C82.3976 43.8262 87.8539 49.387 87.8539 56.226Z" fill="url(#paint1_linear_512_28350)" fill-opacity="0.8"/>
<path fill-rule="evenodd" clip-rule="evenodd" d="M33.1551 37.0226L32.1981 36.8836C31.4619 36.7767 30.715 36.7185 29.9584 36.7185C21.4974 36.7185 14.6321 43.5954 14.6321 52.0827C14.6321 60.5726 21.4973 67.447 29.9584 67.447H75.3184C81.4993 67.447 86.5129 62.4259 86.5129 56.226C86.5129 50.1151 81.6378 45.1502 75.5816 45.0117L74.2713 44.9817V43.7319C74.1777 42.7616 74.0183 41.8083 73.7991 40.8766C71.5565 31.3506 63.0201 24.2649 52.8382 24.2649C44.4237 24.2649 37.1351 29.101 33.5892 36.1585L33.1551 37.0226ZM75.1045 40.5695C72.7231 30.4535 63.6585 22.9238 52.8382 22.9238C43.8959 22.9238 36.1549 28.0647 32.3909 35.5565C31.5953 35.4409 30.7839 35.3774 29.9584 35.3774C20.7539 35.3774 13.291 42.8577 13.291 52.0827C13.291 61.3104 20.7539 68.7881 29.9584 68.7881H75.3184C82.2427 68.7881 87.8539 63.1638 87.8539 56.226C87.8539 49.387 82.3976 43.8262 75.6123 43.671V43.6683C75.5138 42.6142 75.3421 41.5795 75.1045 40.5695Z" fill="url(#paint2_linear_512_28350)"/>
<path d="M51.0873 76C49.111 77.9763 46.6411 78.9611 46.6411 82.2656C46.6411 82.3837 46.6435 82.2664 46.6484 82.3837C46.865 87.9963 55.3089 87.9963 55.5263 82.3837C55.5303 82.2664 55.5328 82.3837 55.5328 82.2656C55.5328 78.9611 52.8437 77.7564 51.0873 76Z" fill="#AAAEB6"/>
<path d="M25.4462 76C23.4699 77.9763 21 78.9611 21 82.2656C21 82.3837 21.0024 82.2664 21.0073 82.3837C21.2239 87.9963 29.6677 87.9963 29.8851 82.3837C29.8892 82.2664 29.8916 82.3837 29.8916 82.2656C29.8916 78.9611 27.2026 77.7564 25.4462 76Z" fill="#AAAEB6"/>
<path d="M38.267 81.1279C36.2907 83.1043 33.8208 84.089 33.8208 87.3935C33.8208 87.5116 33.8232 87.3943 33.8281 87.5116C34.0447 93.1242 42.4885 93.1242 42.7059 87.5116C42.71 87.3943 42.7124 87.5116 42.7124 87.3935C42.7124 84.089 40.0234 82.8843 38.267 81.1279Z" fill="#AAAEB6"/>
<path d="M76.5893 76C74.613 77.9763 72.1431 78.9611 72.1431 82.2656C72.1431 82.3837 72.1455 82.2664 72.1504 82.3837C72.367 87.9963 80.8108 87.9963 81.0282 82.3837C81.0323 82.2664 81.0347 82.3837 81.0347 82.2656C81.0347 78.9611 78.3457 77.7564 76.5893 76Z" fill="#AAAEB6"/>
<path d="M63.9079 81.1279C61.9316 83.1043 59.4617 84.089 59.4617 87.3935C59.4617 87.5116 59.4641 87.3943 59.469 87.5116C59.6856 93.1242 68.1294 93.1242 68.3468 87.5116C68.3509 87.3943 68.3533 87.5116 68.3533 87.3935C68.3533 84.089 65.6643 82.8843 63.9079 81.1279Z" fill="#AAAEB6"/>
<defs>
<linearGradient id="paint0_linear_512_28350" x1="91.304" y1="72.774" x2="13.1422" y2="36.1308" gradientUnits="userSpaceOnUse">
<stop stop-color="#AAAEB6"/>
<stop offset="1" stop-color="white" stop-opacity="0.51"/>
</linearGradient>
<linearGradient id="paint1_linear_512_28350" x1="29.7175" y1="35.7617" x2="83.8876" y2="68.5349" gradientUnits="userSpaceOnUse">
<stop stop-color="white" stop-opacity="0.9"/>
<stop offset="1" stop-color="white" stop-opacity="0.51"/>
</linearGradient>
<linearGradient id="paint2_linear_512_28350" x1="18.5211" y1="29.8973" x2="50.5725" y2="63.9603" gradientUnits="userSpaceOnUse">
<stop stop-color="white"/>
<stop offset="1" stop-color="white" stop-opacity="0"/>
</linearGradient>
</defs>
</svg>
