<svg width="100" height="100" viewBox="0 0 100 100" fill="none" xmlns="http://www.w3.org/2000/svg">
<circle cx="33.9316" cy="32.25" r="20.25" fill="#ECF2F4"/>
<path d="M89.8539 55.226C89.8539 62.1638 84.2427 67.7881 77.3184 67.7881H31.9584C22.7539 67.7881 15.291 60.3104 15.291 51.0827C15.291 41.8577 22.7539 34.3774 31.9584 34.3774C32.7839 34.3774 33.5953 34.4409 34.3909 34.5565C38.1549 27.0647 45.8959 21.9238 54.8382 21.9238C65.6585 21.9238 74.7231 29.4535 77.1045 39.5695C77.3421 40.5795 77.5138 41.6142 77.6123 42.6683V42.671C84.3976 42.8262 89.8539 48.387 89.8539 55.226Z" fill="url(#paint0_linear_512_28398)" fill-opacity="0.8"/>
<path d="M89.8539 55.226C89.8539 62.1638 84.2427 67.7881 77.3184 67.7881H31.9584C22.7539 67.7881 15.291 60.3104 15.291 51.0827C15.291 41.8577 22.7539 34.3774 31.9584 34.3774C32.7839 34.3774 33.5953 34.4409 34.3909 34.5565C38.1549 27.0647 45.8959 21.9238 54.8382 21.9238C65.6585 21.9238 74.7231 29.4535 77.1045 39.5695C77.3421 40.5795 77.5138 41.6142 77.6123 42.6683V42.671C84.3976 42.8262 89.8539 48.387 89.8539 55.226Z" fill="url(#paint1_linear_512_28398)" fill-opacity="0.35"/>
<path fill-rule="evenodd" clip-rule="evenodd" d="M35.1551 36.0226L34.1982 35.8836C33.4619 35.7767 32.715 35.7185 31.9584 35.7185C23.4974 35.7185 16.6321 42.5954 16.6321 51.0827C16.6321 59.5726 23.4973 66.447 31.9584 66.447H77.3184C83.4993 66.447 88.5129 61.4259 88.5129 55.226C88.5129 49.1151 83.6378 44.1502 77.5816 44.0117L76.2713 43.9817V42.7319C76.1777 41.7616 76.0183 40.8083 75.7991 39.8766C73.5565 30.3506 65.0201 23.2649 54.8382 23.2649C46.4237 23.2649 39.1351 28.101 35.5892 35.1585L35.1551 36.0226ZM77.1045 39.5695C74.7231 29.4535 65.6585 21.9238 54.8382 21.9238C45.8959 21.9238 38.1549 27.0647 34.3909 34.5565C33.5953 34.4409 32.7839 34.3774 31.9584 34.3774C22.7539 34.3774 15.291 41.8577 15.291 51.0827C15.291 60.3104 22.7539 67.7881 31.9584 67.7881H77.3184C84.2427 67.7881 89.8539 62.1638 89.8539 55.226C89.8539 48.387 84.3976 42.8262 77.6123 42.671V42.6683C77.5138 41.6142 77.3421 40.5795 77.1045 39.5695Z" fill="url(#paint2_linear_512_28398)" fill-opacity="0.8"/>
<path fill-rule="evenodd" clip-rule="evenodd" d="M35.1551 36.0226L34.1982 35.8836C33.4619 35.7767 32.715 35.7185 31.9584 35.7185C23.4974 35.7185 16.6321 42.5954 16.6321 51.0827C16.6321 59.5726 23.4973 66.447 31.9584 66.447H77.3184C83.4993 66.447 88.5129 61.4259 88.5129 55.226C88.5129 49.1151 83.6378 44.1502 77.5816 44.0117L76.2713 43.9817V42.7319C76.1777 41.7616 76.0183 40.8083 75.7991 39.8766C73.5565 30.3506 65.0201 23.2649 54.8382 23.2649C46.4237 23.2649 39.1351 28.101 35.5892 35.1585L35.1551 36.0226ZM77.1045 39.5695C74.7231 29.4535 65.6585 21.9238 54.8382 21.9238C45.8959 21.9238 38.1549 27.0647 34.3909 34.5565C33.5953 34.4409 32.7839 34.3774 31.9584 34.3774C22.7539 34.3774 15.291 41.8577 15.291 51.0827C15.291 60.3104 22.7539 67.7881 31.9584 67.7881H77.3184C84.2427 67.7881 89.8539 62.1638 89.8539 55.226C89.8539 48.387 84.3976 42.8262 77.6123 42.671V42.6683C77.5138 41.6142 77.3421 40.5795 77.1045 39.5695Z" fill="url(#paint3_linear_512_28398)" fill-opacity="0.35"/>
<path d="M62.9361 66C59.853 69.0831 56 70.6193 56 75.7743C56 75.9586 56.0038 75.7756 56.0114 75.9586C56.3493 84.7142 69.5217 84.7142 69.8608 75.9586C69.8672 75.7756 69.871 75.9586 69.871 75.7743C69.871 70.6193 65.676 68.7399 62.9361 66Z" fill="#6CA7FF"/>
<path d="M42.9361 71.6001C39.853 74.6832 36 76.2194 36 81.3744C36 81.5587 36.0038 81.3757 36.0114 81.5587C36.3493 90.3143 49.5217 90.3143 49.8608 81.5587C49.8672 81.3757 49.871 81.5587 49.871 81.3744C49.871 76.2194 45.676 74.34 42.9361 71.6001Z" fill="#6CA7FF"/>
<defs>
<linearGradient id="paint0_linear_512_28398" x1="89.854" y1="72.9908" x2="15.1298" y2="35.1316" gradientUnits="userSpaceOnUse">
<stop stop-color="#384153" stop-opacity="0.5"/>
<stop offset="1" stop-color="#BAC7CB" stop-opacity="0.5"/>
</linearGradient>
<linearGradient id="paint1_linear_512_28398" x1="31.7175" y1="34.7617" x2="85.8876" y2="67.5349" gradientUnits="userSpaceOnUse">
<stop stop-color="#D9E6EA"/>
<stop offset="1" stop-color="white" stop-opacity="0.51"/>
</linearGradient>
<linearGradient id="paint2_linear_512_28398" x1="89.854" y1="72.9908" x2="15.1298" y2="35.1316" gradientUnits="userSpaceOnUse">
<stop stop-color="#384153" stop-opacity="0.5"/>
<stop offset="1" stop-color="#BAC7CB" stop-opacity="0.5"/>
</linearGradient>
<linearGradient id="paint3_linear_512_28398" x1="31.7175" y1="34.7617" x2="85.8876" y2="67.5349" gradientUnits="userSpaceOnUse">
<stop stop-color="#D9E6EA"/>
<stop offset="1" stop-color="white" stop-opacity="0.51"/>
</linearGradient>
</defs>
</svg>
