<svg width="100" height="100" viewBox="0 0 100 100" fill="none" xmlns="http://www.w3.org/2000/svg">
<path d="M87.8539 56.226C87.8539 63.1638 82.2427 68.7881 75.3184 68.7881H29.9584C20.7539 68.7881 13.291 61.3104 13.291 52.0827C13.291 42.8577 20.7539 35.3774 29.9584 35.3774C30.7839 35.3774 31.5953 35.4409 32.3909 35.5565C36.1549 28.0647 43.8959 22.9238 52.8382 22.9238C63.6585 22.9238 72.7231 30.4535 75.1045 40.5695C75.3421 41.5795 75.5138 42.6142 75.6123 43.6683V43.671C82.3976 43.8262 87.8539 49.387 87.8539 56.226Z" fill="url(#paint0_linear_512_28462)" fill-opacity="0.8"/>
<path d="M87.8539 56.226C87.8539 63.1638 82.2427 68.7881 75.3184 68.7881H29.9584C20.7539 68.7881 13.291 61.3104 13.291 52.0827C13.291 42.8577 20.7539 35.3774 29.9584 35.3774C30.7839 35.3774 31.5953 35.4409 32.3909 35.5565C36.1549 28.0647 43.8959 22.9238 52.8382 22.9238C63.6585 22.9238 72.7231 30.4535 75.1045 40.5695C75.3421 41.5795 75.5138 42.6142 75.6123 43.6683V43.671C82.3976 43.8262 87.8539 49.387 87.8539 56.226Z" fill="url(#paint1_linear_512_28462)" fill-opacity="0.55"/>
<path fill-rule="evenodd" clip-rule="evenodd" d="M33.1551 37.0226L32.1982 36.8836C31.4619 36.7767 30.715 36.7185 29.9584 36.7185C21.4974 36.7185 14.6321 43.5954 14.6321 52.0827C14.6321 60.5726 21.4973 67.447 29.9584 67.447H75.3184C81.4993 67.447 86.5129 62.4259 86.5129 56.226C86.5129 50.1151 81.6378 45.1502 75.5816 45.0117L74.2713 44.9817V43.7319C74.1777 42.7616 74.0183 41.8083 73.7991 40.8766C71.5565 31.3506 63.0201 24.2649 52.8382 24.2649C44.4237 24.2649 37.1351 29.101 33.5892 36.1585L33.1551 37.0226ZM75.1045 40.5695C72.7231 30.4535 63.6585 22.9238 52.8382 22.9238C43.8959 22.9238 36.1549 28.0647 32.3909 35.5565C31.5953 35.4409 30.7839 35.3774 29.9584 35.3774C20.7539 35.3774 13.291 42.8577 13.291 52.0827C13.291 61.3104 20.7539 68.7881 29.9584 68.7881H75.3184C82.2427 68.7881 87.8539 63.1638 87.8539 56.226C87.8539 49.387 82.3976 43.8262 75.6123 43.671V43.6683C75.5138 42.6142 75.3421 41.5795 75.1045 40.5695Z" fill="url(#paint2_linear_512_28462)"/>
<path d="M41.9586 65C39.4453 67.5134 36.3042 68.7658 36.3042 72.9682C36.3042 73.1184 36.3073 72.9692 36.3135 73.1184C36.5889 80.2561 47.3273 80.2561 47.6038 73.1184C47.6089 72.9692 47.612 73.1184 47.612 72.9682C47.612 68.7658 44.1923 67.2336 41.9586 65Z" fill="#AAAEB6"/>
<path d="M25.6544 71.5215C23.1411 74.0349 20 75.2872 20 79.4897C20 79.6399 20.0031 79.4907 20.0093 79.6399C20.2847 86.7776 31.0231 86.7776 31.2996 79.6399C31.3047 79.4907 31.3078 79.6399 31.3078 79.4897C31.3078 75.2872 27.8881 73.7551 25.6544 71.5215Z" fill="#AAAEB6"/>
<path d="M74.3903 65C71.8769 67.5134 68.7358 68.7658 68.7358 72.9682C68.7358 73.1184 68.7389 72.9692 68.7451 73.1184C69.0206 80.2561 79.7589 80.2561 80.0354 73.1184C80.0406 72.9692 80.0437 73.1184 80.0437 72.9682C80.0437 68.7658 76.6239 67.2336 74.3903 65Z" fill="#AAAEB6"/>
<path d="M58.2631 71.5215C55.7497 74.0349 52.6086 75.2872 52.6086 79.4897C52.6086 79.6399 52.6117 79.4907 52.6179 79.6399C52.8934 86.7776 63.6317 86.7776 63.9082 79.6399C63.9134 79.4907 63.9165 79.6399 63.9165 79.4897C63.9165 75.2872 60.4967 73.7551 58.2631 71.5215Z" fill="#AAAEB6"/>
<defs>
<linearGradient id="paint0_linear_512_28462" x1="87.854" y1="73.9908" x2="13.1298" y2="36.1316" gradientUnits="userSpaceOnUse">
<stop stop-color="#384153" stop-opacity="0.5"/>
<stop offset="1" stop-color="#EFF7FF"/>
</linearGradient>
<linearGradient id="paint1_linear_512_28462" x1="29.7175" y1="35.7617" x2="83.8876" y2="68.5349" gradientUnits="userSpaceOnUse">
<stop stop-color="white" stop-opacity="0.9"/>
<stop offset="1" stop-color="white" stop-opacity="0.51"/>
</linearGradient>
<linearGradient id="paint2_linear_512_28462" x1="18.5211" y1="29.8973" x2="50.5725" y2="63.9603" gradientUnits="userSpaceOnUse">
<stop stop-color="#D9E6EA" stop-opacity="0.55"/>
<stop offset="1" stop-color="white" stop-opacity="0.05"/>
</linearGradient>
</defs>
</svg>
