<svg width="100" height="100" viewBox="0 0 100 100" fill="none" xmlns="http://www.w3.org/2000/svg">
<circle cx="31.9316" cy="32.25" r="20.25" fill="#ECF2F4"/>
<path d="M87.8539 55.226C87.8539 62.1638 82.2427 67.7881 75.3184 67.7881H29.9584C20.7539 67.7881 13.291 60.3104 13.291 51.0827C13.291 41.8577 20.7539 34.3774 29.9584 34.3774C30.7839 34.3774 31.5953 34.4409 32.3909 34.5565C36.1549 27.0647 43.8959 21.9238 52.8382 21.9238C63.6585 21.9238 72.7231 29.4535 75.1045 39.5695C75.3421 40.5795 75.5138 41.6142 75.6123 42.6683V42.671C82.3976 42.8262 87.8539 48.387 87.8539 55.226Z" fill="url(#paint0_linear_512_28190)" fill-opacity="0.8"/>
<path d="M87.8539 55.226C87.8539 62.1638 82.2427 67.7881 75.3184 67.7881H29.9584C20.7539 67.7881 13.291 60.3104 13.291 51.0827C13.291 41.8577 20.7539 34.3774 29.9584 34.3774C30.7839 34.3774 31.5953 34.4409 32.3909 34.5565C36.1549 27.0647 43.8959 21.9238 52.8382 21.9238C63.6585 21.9238 72.7231 29.4535 75.1045 39.5695C75.3421 40.5795 75.5138 41.6142 75.6123 42.6683V42.671C82.3976 42.8262 87.8539 48.387 87.8539 55.226Z" fill="url(#paint1_linear_512_28190)" fill-opacity="0.35"/>
<path fill-rule="evenodd" clip-rule="evenodd" d="M33.1551 36.0226L32.1982 35.8836C31.4619 35.7767 30.715 35.7185 29.9584 35.7185C21.4974 35.7185 14.6321 42.5954 14.6321 51.0827C14.6321 59.5726 21.4973 66.447 29.9584 66.447H75.3184C81.4993 66.447 86.5129 61.4259 86.5129 55.226C86.5129 49.1151 81.6378 44.1502 75.5816 44.0117L74.2713 43.9817V42.7319C74.1777 41.7616 74.0183 40.8083 73.7991 39.8766C71.5565 30.3506 63.0201 23.2649 52.8382 23.2649C44.4237 23.2649 37.1351 28.101 33.5892 35.1585L33.1551 36.0226ZM75.1045 39.5695C72.7231 29.4535 63.6585 21.9238 52.8382 21.9238C43.8959 21.9238 36.1549 27.0647 32.3909 34.5565C31.5953 34.4409 30.7839 34.3774 29.9584 34.3774C20.7539 34.3774 13.291 41.8577 13.291 51.0827C13.291 60.3104 20.7539 67.7881 29.9584 67.7881H75.3184C82.2427 67.7881 87.8539 62.1638 87.8539 55.226C87.8539 48.387 82.3976 42.8262 75.6123 42.671V42.6683C75.5138 41.6142 75.3421 40.5795 75.1045 39.5695Z" fill="url(#paint2_linear_512_28190)" fill-opacity="0.8"/>
<path fill-rule="evenodd" clip-rule="evenodd" d="M33.1551 36.0226L32.1982 35.8836C31.4619 35.7767 30.715 35.7185 29.9584 35.7185C21.4974 35.7185 14.6321 42.5954 14.6321 51.0827C14.6321 59.5726 21.4973 66.447 29.9584 66.447H75.3184C81.4993 66.447 86.5129 61.4259 86.5129 55.226C86.5129 49.1151 81.6378 44.1502 75.5816 44.0117L74.2713 43.9817V42.7319C74.1777 41.7616 74.0183 40.8083 73.7991 39.8766C71.5565 30.3506 63.0201 23.2649 52.8382 23.2649C44.4237 23.2649 37.1351 28.101 33.5892 35.1585L33.1551 36.0226ZM75.1045 39.5695C72.7231 29.4535 63.6585 21.9238 52.8382 21.9238C43.8959 21.9238 36.1549 27.0647 32.3909 34.5565C31.5953 34.4409 30.7839 34.3774 29.9584 34.3774C20.7539 34.3774 13.291 41.8577 13.291 51.0827C13.291 60.3104 20.7539 67.7881 29.9584 67.7881H75.3184C82.2427 67.7881 87.8539 62.1638 87.8539 55.226C87.8539 48.387 82.3976 42.8262 75.6123 42.671V42.6683C75.5138 41.6142 75.3421 40.5795 75.1045 39.5695Z" fill="url(#paint3_linear_512_28190)" fill-opacity="0.35"/>
<path d="M50.9362 64C47.8532 67.0831 44.0001 68.6193 44.0001 73.7743C44.0001 73.9586 44.0039 73.7756 44.0115 73.9586C44.3494 82.7142 57.5218 82.7142 57.8609 73.9586C57.8673 73.7756 57.8711 73.9586 57.8711 73.7743C57.8711 68.6193 53.6762 66.7399 50.9362 64Z" fill="#6CA7FF"/>
<path d="M30.9362 69.5999C27.8532 72.6829 24.0001 74.2192 24.0001 79.3742C24.0001 79.5584 24.0039 79.3754 24.0115 79.5584C24.3494 88.314 37.5218 88.314 37.8609 79.5584C37.8673 79.3754 37.8711 79.5584 37.8711 79.3742C37.8711 74.2192 33.6762 72.3398 30.9362 69.5999Z" fill="#6CA7FF"/>
<path d="M80.4955 74.37C80.018 73.5191 78.9617 73.2274 78.1352 73.7181C76.5721 74.6475 74.5918 73.5211 74.5918 71.7025V71.612C74.5918 70.6296 73.8178 69.8328 72.8637 69.8328C71.9097 69.8328 71.1357 70.6296 71.1357 71.612V71.7025C71.1357 73.5211 69.1554 74.6475 67.5923 73.7181C66.7658 73.2274 65.7094 73.5191 65.232 74.37C64.7545 75.2209 65.0378 76.3086 65.8642 76.8002C67.4619 77.7498 67.4619 80.0628 65.8642 81.0124C65.0378 81.504 64.7545 82.5917 65.232 83.4426C65.552 84.0135 66.1327 84.3332 66.73 84.3332C67.023 84.3332 67.3203 84.2557 67.5923 84.0946C69.1554 83.1651 71.1357 84.2916 71.1357 86.1101V86.2006C71.1357 87.183 71.9097 87.9799 72.8637 87.9799C73.8178 87.9799 74.5918 87.183 74.5918 86.2006V86.1106C74.5918 84.292 76.5719 83.1654 78.1352 84.0946C78.4072 84.2566 78.7045 84.3332 78.9975 84.3332C79.5948 84.3332 80.1755 84.0135 80.4955 83.4435C80.9721 82.5926 80.6897 81.504 79.8633 81.0133C78.2656 80.0633 78.2654 77.7499 79.8633 76.8002C80.6897 76.3086 80.973 75.2209 80.4955 74.37Z" fill="#818494"/>
<defs>
<linearGradient id="paint0_linear_512_28190" x1="87.854" y1="72.9908" x2="13.1298" y2="35.1316" gradientUnits="userSpaceOnUse">
<stop stop-color="#384153" stop-opacity="0.5"/>
<stop offset="1" stop-color="#BAC7CB" stop-opacity="0.5"/>
</linearGradient>
<linearGradient id="paint1_linear_512_28190" x1="29.7175" y1="34.7617" x2="83.8876" y2="67.5349" gradientUnits="userSpaceOnUse">
<stop stop-color="#D9E6EA"/>
<stop offset="1" stop-color="white" stop-opacity="0.51"/>
</linearGradient>
<linearGradient id="paint2_linear_512_28190" x1="87.854" y1="72.9908" x2="13.1298" y2="35.1316" gradientUnits="userSpaceOnUse">
<stop stop-color="#384153" stop-opacity="0.5"/>
<stop offset="1" stop-color="#BAC7CB" stop-opacity="0.5"/>
</linearGradient>
<linearGradient id="paint3_linear_512_28190" x1="29.7175" y1="34.7617" x2="83.8876" y2="67.5349" gradientUnits="userSpaceOnUse">
<stop stop-color="#D9E6EA"/>
<stop offset="1" stop-color="white" stop-opacity="0.51"/>
</linearGradient>
</defs>
</svg>
