<svg width="100" height="100" viewBox="0 0 100 100" fill="none" xmlns="http://www.w3.org/2000/svg">
<circle cx="31.9316" cy="33.25" r="20.25" fill="#ECF2F4"/>
<path d="M87.8539 56.226C87.8539 63.1638 82.2427 68.7881 75.3184 68.7881H29.9584C20.7539 68.7881 13.291 61.3104 13.291 52.0827C13.291 42.8577 20.7539 35.3774 29.9584 35.3774C30.7839 35.3774 31.5953 35.4409 32.3909 35.5565C36.1549 28.0647 43.8959 22.9238 52.8382 22.9238C63.6585 22.9238 72.7231 30.4535 75.1045 40.5695C75.3421 41.5795 75.5138 42.6142 75.6123 43.6683V43.671C82.3976 43.8262 87.8539 49.387 87.8539 56.226Z" fill="url(#paint0_linear_512_28206)" fill-opacity="0.8"/>
<path d="M87.8539 56.226C87.8539 63.1638 82.2427 68.7881 75.3184 68.7881H29.9584C20.7539 68.7881 13.291 61.3104 13.291 52.0827C13.291 42.8577 20.7539 35.3774 29.9584 35.3774C30.7839 35.3774 31.5953 35.4409 32.3909 35.5565C36.1549 28.0647 43.8959 22.9238 52.8382 22.9238C63.6585 22.9238 72.7231 30.4535 75.1045 40.5695C75.3421 41.5795 75.5138 42.6142 75.6123 43.6683V43.671C82.3976 43.8262 87.8539 49.387 87.8539 56.226Z" fill="url(#paint1_linear_512_28206)" fill-opacity="0.35"/>
<path fill-rule="evenodd" clip-rule="evenodd" d="M33.1551 37.0226L32.1982 36.8836C31.4619 36.7767 30.715 36.7185 29.9584 36.7185C21.4974 36.7185 14.6321 43.5954 14.6321 52.0827C14.6321 60.5726 21.4973 67.447 29.9584 67.447H75.3184C81.4993 67.447 86.5129 62.4259 86.5129 56.226C86.5129 50.1151 81.6378 45.1502 75.5816 45.0117L74.2713 44.9817V43.7319C74.1777 42.7616 74.0183 41.8083 73.7991 40.8766C71.5565 31.3506 63.0201 24.2649 52.8382 24.2649C44.4237 24.2649 37.1351 29.101 33.5892 36.1585L33.1551 37.0226ZM75.1045 40.5695C72.7231 30.4535 63.6585 22.9238 52.8382 22.9238C43.8959 22.9238 36.1549 28.0647 32.3909 35.5565C31.5953 35.4409 30.7839 35.3774 29.9584 35.3774C20.7539 35.3774 13.291 42.8577 13.291 52.0827C13.291 61.3104 20.7539 68.7881 29.9584 68.7881H75.3184C82.2427 68.7881 87.8539 63.1638 87.8539 56.226C87.8539 49.387 82.3976 43.8262 75.6123 43.671V43.6683C75.5138 42.6142 75.3421 41.5795 75.1045 40.5695Z" fill="url(#paint2_linear_512_28206)" fill-opacity="0.8"/>
<path fill-rule="evenodd" clip-rule="evenodd" d="M33.1551 37.0226L32.1982 36.8836C31.4619 36.7767 30.715 36.7185 29.9584 36.7185C21.4974 36.7185 14.6321 43.5954 14.6321 52.0827C14.6321 60.5726 21.4973 67.447 29.9584 67.447H75.3184C81.4993 67.447 86.5129 62.4259 86.5129 56.226C86.5129 50.1151 81.6378 45.1502 75.5816 45.0117L74.2713 44.9817V43.7319C74.1777 42.7616 74.0183 41.8083 73.7991 40.8766C71.5565 31.3506 63.0201 24.2649 52.8382 24.2649C44.4237 24.2649 37.1351 29.101 33.5892 36.1585L33.1551 37.0226ZM75.1045 40.5695C72.7231 30.4535 63.6585 22.9238 52.8382 22.9238C43.8959 22.9238 36.1549 28.0647 32.3909 35.5565C31.5953 35.4409 30.7839 35.3774 29.9584 35.3774C20.7539 35.3774 13.291 42.8577 13.291 52.0827C13.291 61.3104 20.7539 68.7881 29.9584 68.7881H75.3184C82.2427 68.7881 87.8539 63.1638 87.8539 56.226C87.8539 49.387 82.3976 43.8262 75.6123 43.671V43.6683C75.5138 42.6142 75.3421 41.5795 75.1045 40.5695Z" fill="url(#paint3_linear_512_28206)" fill-opacity="0.35"/>
<path d="M49.9362 79C46.8532 82.0831 43.0001 83.6193 43.0001 88.7743C43.0001 88.9586 43.0039 88.7756 43.0115 88.9586C43.3494 97.7142 56.5218 97.7142 56.8609 88.9586C56.8673 88.7756 56.8711 88.9586 56.8711 88.7743C56.8711 83.6193 52.6762 81.7399 49.9362 79Z" fill="#6CA7FF"/>
<path d="M44.0907 67.6128C43.564 66.7146 42.3989 66.4067 41.4874 66.9247L41.4443 66.9492C39.7203 67.9303 37.5792 66.6852 37.5792 64.7016C37.5792 63.6646 36.7255 62.8235 35.6733 62.8235C34.621 62.8235 33.7674 63.6646 33.7674 64.7016C33.7674 66.6852 31.6262 67.9303 29.9022 66.9492L29.8591 66.9247C28.9476 66.4067 27.7825 66.7146 27.2558 67.6128C26.7292 68.511 27.0417 69.6591 27.9532 70.178C29.6773 71.1587 29.6773 73.6435 27.9532 74.6242C27.0417 75.1432 26.7292 76.2913 27.2558 77.1895C27.6089 77.7921 28.2493 78.1295 28.9081 78.1295C29.2312 78.1295 29.5591 78.0477 29.8591 77.8776L29.9022 77.8531C31.6262 76.872 33.7674 78.1171 33.7674 80.1007C33.7674 81.1376 34.621 81.9788 35.6733 81.9788C36.7255 81.9788 37.5792 81.1376 37.5792 80.1007C37.5792 78.1173 39.7199 76.8722 41.4439 77.8528L41.4874 77.8776C41.7874 78.0487 42.1153 78.1295 42.4384 78.1295C43.0972 78.1295 43.7376 77.7921 44.0907 77.1904C44.6163 76.2923 44.3048 75.1432 43.3933 74.6252C41.6692 73.6441 41.6691 71.1588 43.3933 70.178C44.3048 69.6591 44.6173 68.511 44.0907 67.6128Z" fill="#818494"/>
<path d="M71.4436 67.6128C70.9169 66.7146 69.7518 66.4067 68.8403 66.9247L68.7972 66.9492C67.0732 67.9303 64.9321 66.6852 64.9321 64.7016C64.9321 63.6646 64.0785 62.8235 63.0262 62.8235C61.9739 62.8235 61.1203 63.6646 61.1203 64.7016C61.1203 66.6852 58.9791 67.9303 57.2551 66.9492L57.212 66.9247C56.3005 66.4067 55.1354 66.7146 54.6088 67.6128C54.0821 68.511 54.3946 69.6591 55.3061 70.178C57.0302 71.1587 57.0302 73.6435 55.3061 74.6242C54.3946 75.1432 54.0821 76.2913 54.6088 77.1895C54.9618 77.7921 55.6022 78.1295 56.261 78.1295C56.5841 78.1295 56.912 78.0477 57.212 77.8776L57.2551 77.8531C58.9791 76.872 61.1203 78.1171 61.1203 80.1007C61.1203 81.1376 61.9739 81.9788 63.0262 81.9788C64.0785 81.9788 64.9321 81.1376 64.9321 80.1007C64.9321 78.1173 67.0728 76.8722 68.7968 77.8528L68.8403 77.8776C69.1403 78.0487 69.4682 78.1295 69.7913 78.1295C70.4501 78.1295 71.0905 77.7921 71.4436 77.1904C71.9692 76.2923 71.6577 75.1432 70.7462 74.6252C69.0222 73.6441 69.022 71.1588 70.7462 70.178C71.6577 69.6591 71.9702 68.511 71.4436 67.6128Z" fill="#818494"/>
<defs>
<linearGradient id="paint0_linear_512_28206" x1="87.854" y1="73.9908" x2="13.1298" y2="36.1316" gradientUnits="userSpaceOnUse">
<stop stop-color="#384153" stop-opacity="0.5"/>
<stop offset="1" stop-color="#BAC7CB" stop-opacity="0.5"/>
</linearGradient>
<linearGradient id="paint1_linear_512_28206" x1="29.7175" y1="35.7617" x2="83.8876" y2="68.5349" gradientUnits="userSpaceOnUse">
<stop stop-color="#D9E6EA"/>
<stop offset="1" stop-color="white" stop-opacity="0.51"/>
</linearGradient>
<linearGradient id="paint2_linear_512_28206" x1="87.854" y1="73.9908" x2="13.1298" y2="36.1316" gradientUnits="userSpaceOnUse">
<stop stop-color="#384153" stop-opacity="0.5"/>
<stop offset="1" stop-color="#BAC7CB" stop-opacity="0.5"/>
</linearGradient>
<linearGradient id="paint3_linear_512_28206" x1="29.7175" y1="35.7617" x2="83.8876" y2="68.5349" gradientUnits="userSpaceOnUse">
<stop stop-color="#D9E6EA"/>
<stop offset="1" stop-color="white" stop-opacity="0.51"/>
</linearGradient>
</defs>
</svg>
