<svg width="100" height="100" viewBox="0 0 100 100" fill="none" xmlns="http://www.w3.org/2000/svg">
<circle cx="31.9316" cy="33.25" r="20.25" fill="#ECF2F4"/>
<path d="M87.8539 56.226C87.8539 63.1638 82.2427 68.7881 75.3184 68.7881H29.9584C20.7539 68.7881 13.291 61.3104 13.291 52.0827C13.291 42.8577 20.7539 35.3774 29.9584 35.3774C30.7839 35.3774 31.5953 35.4409 32.3909 35.5565C36.1549 28.0647 43.8959 22.9238 52.8382 22.9238C63.6585 22.9238 72.7231 30.4535 75.1045 40.5695C75.3421 41.5795 75.5138 42.6142 75.6123 43.6683V43.671C82.3976 43.8262 87.8539 49.387 87.8539 56.226Z" fill="url(#paint0_linear_512_28286)" fill-opacity="0.8"/>
<path d="M87.8539 56.226C87.8539 63.1638 82.2427 68.7881 75.3184 68.7881H29.9584C20.7539 68.7881 13.291 61.3104 13.291 52.0827C13.291 42.8577 20.7539 35.3774 29.9584 35.3774C30.7839 35.3774 31.5953 35.4409 32.3909 35.5565C36.1549 28.0647 43.8959 22.9238 52.8382 22.9238C63.6585 22.9238 72.7231 30.4535 75.1045 40.5695C75.3421 41.5795 75.5138 42.6142 75.6123 43.6683V43.671C82.3976 43.8262 87.8539 49.387 87.8539 56.226Z" fill="url(#paint1_linear_512_28286)" fill-opacity="0.05"/>
<path fill-rule="evenodd" clip-rule="evenodd" d="M33.1551 37.0226L32.1982 36.8836C31.4619 36.7767 30.715 36.7185 29.9584 36.7185C21.4974 36.7185 14.6321 43.5954 14.6321 52.0827C14.6321 60.5726 21.4973 67.447 29.9584 67.447H75.3184C81.4993 67.447 86.5129 62.4259 86.5129 56.226C86.5129 50.1151 81.6378 45.1502 75.5816 45.0117L74.2713 44.9817V43.7319C74.1777 42.7616 74.0183 41.8083 73.7991 40.8766C71.5565 31.3506 63.0201 24.2649 52.8382 24.2649C44.4237 24.2649 37.1351 29.101 33.5892 36.1585L33.1551 37.0226ZM75.1045 40.5695C72.7231 30.4535 63.6585 22.9238 52.8382 22.9238C43.8959 22.9238 36.1549 28.0647 32.3909 35.5565C31.5953 35.4409 30.7839 35.3774 29.9584 35.3774C20.7539 35.3774 13.291 42.8577 13.291 52.0827C13.291 61.3104 20.7539 68.7881 29.9584 68.7881H75.3184C82.2427 68.7881 87.8539 63.1638 87.8539 56.226C87.8539 49.387 82.3976 43.8262 75.6123 43.671V43.6683C75.5138 42.6142 75.3421 41.5795 75.1045 40.5695Z" fill="url(#paint2_linear_512_28286)"/>
<path d="M59.0665 52.6546C59.8558 51.4511 58.3811 50.0454 57.2892 50.9605L45.6584 60.7076C44.9209 61.3258 45.3427 62.5612 46.2914 62.5612C47.1518 62.5612 47.6155 63.6074 47.0547 64.2835L41.2443 71.2895C40.5642 72.1096 41.1265 73.3785 42.1701 73.3785H42.4826C43.4636 73.3785 44.0439 74.5168 43.4908 75.3563L40.2047 80.3445C39.4397 81.5057 40.8002 82.8997 41.9123 82.094L53.7978 73.4837C54.6188 72.889 54.2126 71.5527 53.2109 71.5527C52.328 71.5527 51.8588 70.4727 52.4442 69.7879L57.9819 63.3099C58.6795 62.4938 58.1203 61.2066 57.0681 61.2066H55.7631C54.7833 61.2066 54.2028 60.0707 54.7535 59.231L59.0665 52.6546Z" fill="url(#paint3_radial_512_28286)"/>
<defs>
<linearGradient id="paint0_linear_512_28286" x1="87.854" y1="73.9908" x2="13.1298" y2="36.1316" gradientUnits="userSpaceOnUse">
<stop stop-color="#5C5C5C"/>
<stop offset="1" stop-color="#384153" stop-opacity="0.25"/>
</linearGradient>
<linearGradient id="paint1_linear_512_28286" x1="29.7175" y1="35.7617" x2="83.8876" y2="68.5349" gradientUnits="userSpaceOnUse">
<stop stop-color="white" stop-opacity="0.9"/>
<stop offset="1" stop-color="white" stop-opacity="0.51"/>
</linearGradient>
<linearGradient id="paint2_linear_512_28286" x1="18.5211" y1="29.8973" x2="50.5725" y2="63.9603" gradientUnits="userSpaceOnUse">
<stop stop-color="#7B91A7"/>
<stop offset="1" stop-color="white" stop-opacity="0"/>
</linearGradient>
<radialGradient id="paint3_radial_512_28286" cx="0" cy="0" r="1" gradientUnits="userSpaceOnUse" gradientTransform="translate(50.0717 65.8219) rotate(90) scale(28.1663 18.9726)">
<stop stop-color="#FFD88B"/>
<stop offset="1" stop-color="#FFA900"/>
</radialGradient>
</defs>
</svg>
