<svg width="100" height="100" viewBox="0 0 100 100" fill="none" xmlns="http://www.w3.org/2000/svg">
<path d="M87.8539 55.226C87.8539 62.1638 82.2427 67.7881 75.3184 67.7881H29.9584C20.7539 67.7881 13.291 60.3104 13.291 51.0827C13.291 41.8577 20.7539 34.3774 29.9584 34.3774C30.7839 34.3774 31.5953 34.4409 32.3909 34.5565C36.1549 27.0647 43.8959 21.9238 52.8382 21.9238C63.6585 21.9238 72.7231 29.4535 75.1045 39.5695C75.3421 40.5795 75.5138 41.6142 75.6123 42.6683V42.671C82.3976 42.8262 87.8539 48.387 87.8539 55.226Z" fill="url(#paint0_linear_573_23973)" fill-opacity="0.8"/>
<path d="M87.8539 55.226C87.8539 62.1638 82.2427 67.7881 75.3184 67.7881H29.9584C20.7539 67.7881 13.291 60.3104 13.291 51.0827C13.291 41.8577 20.7539 34.3774 29.9584 34.3774C30.7839 34.3774 31.5953 34.4409 32.3909 34.5565C36.1549 27.0647 43.8959 21.9238 52.8382 21.9238C63.6585 21.9238 72.7231 29.4535 75.1045 39.5695C75.3421 40.5795 75.5138 41.6142 75.6123 42.6683V42.671C82.3976 42.8262 87.8539 48.387 87.8539 55.226Z" fill="url(#paint1_linear_573_23973)" fill-opacity="0.05"/>
<path fill-rule="evenodd" clip-rule="evenodd" d="M33.1551 36.0226L32.1982 35.8836C31.4619 35.7767 30.715 35.7185 29.9584 35.7185C21.4974 35.7185 14.6321 42.5954 14.6321 51.0827C14.6321 59.5726 21.4973 66.447 29.9584 66.447H75.3184C81.4993 66.447 86.5129 61.4259 86.5129 55.226C86.5129 49.1151 81.6378 44.1502 75.5816 44.0117L74.2713 43.9817V42.7319C74.1777 41.7616 74.0183 40.8083 73.7991 39.8766C71.5565 30.3506 63.0201 23.2649 52.8382 23.2649C44.4237 23.2649 37.1351 28.101 33.5892 35.1585L33.1551 36.0226ZM75.1045 39.5695C72.7231 29.4535 63.6585 21.9238 52.8382 21.9238C43.8959 21.9238 36.1549 27.0647 32.3909 34.5565C31.5953 34.4409 30.7839 34.3774 29.9584 34.3774C20.7539 34.3774 13.291 41.8577 13.291 51.0827C13.291 60.3104 20.7539 67.7881 29.9584 67.7881H75.3184C82.2427 67.7881 87.8539 62.1638 87.8539 55.226C87.8539 48.387 82.3976 42.8262 75.6123 42.671V42.6683C75.5138 41.6142 75.3421 40.5795 75.1045 39.5695Z" fill="url(#paint2_linear_573_23973)"/>
<path d="M70.0665 58.6546C70.8558 57.4511 69.3811 56.0454 68.2892 56.9605L56.6584 66.7076C55.9209 67.3258 56.3427 68.5612 57.2914 68.5612V68.5612C58.1518 68.5612 58.6155 69.6074 58.0547 70.2835L52.2443 77.2895C51.5642 78.1096 52.1265 79.3785 53.1701 79.3785H53.4826C54.4636 79.3785 55.0439 80.5168 54.4908 81.3563L51.2047 86.3445C50.4397 87.5057 51.8002 88.8997 52.9123 88.094L64.7978 79.4837C65.6188 78.889 65.2126 77.5527 64.2109 77.5527V77.5527C63.328 77.5527 62.8588 76.4727 63.4442 75.7879L68.9819 69.3099C69.6795 68.4938 69.1203 67.2066 68.0681 67.2066H66.7631C65.7833 67.2066 65.2028 66.0707 65.7535 65.231L70.0665 58.6546Z" fill="url(#paint3_radial_573_23973)"/>
<path d="M45.4955 74.3702C45.018 73.5193 43.9617 73.2276 43.1352 73.7183V73.7183C41.5721 74.6478 39.5918 73.5213 39.5918 71.7027V71.6122C39.5918 70.6299 38.8178 69.833 37.8637 69.833C36.9097 69.833 36.1357 70.6299 36.1357 71.6122V71.7027C36.1357 73.5213 34.1554 74.6478 32.5923 73.7183V73.7183C31.7658 73.2276 30.7094 73.5193 30.232 74.3702C29.7545 75.2211 30.0378 76.3088 30.8642 76.8005V76.8005C32.4619 77.75 32.4619 80.0631 30.8642 81.0127V81.0127C30.0378 81.5043 29.7545 82.592 30.232 83.4429C30.552 84.0138 31.1327 84.3334 31.73 84.3334C32.023 84.3334 32.3203 84.256 32.5923 84.0948V84.0948C34.1554 83.1653 36.1357 84.2918 36.1357 86.1104V86.2009C36.1357 87.1832 36.9097 87.9801 37.8637 87.9801C38.8178 87.9801 39.5918 87.1832 39.5918 86.2009V86.1108C39.5918 84.2922 41.5719 83.1656 43.1352 84.0948V84.0948C43.4072 84.2569 43.7045 84.3334 43.9975 84.3334C44.5948 84.3334 45.1755 84.0138 45.4955 83.4438C45.9721 82.5929 45.6897 81.5043 44.8633 81.0136V81.0136C43.2656 80.0636 43.2654 77.7501 44.8633 76.8005V76.8005C45.6897 76.3088 45.973 75.2211 45.4955 74.3702Z" fill="#818494"/>
<defs>
<linearGradient id="paint0_linear_573_23973" x1="87.854" y1="72.9908" x2="13.1298" y2="35.1316" gradientUnits="userSpaceOnUse">
<stop stop-color="#5C5C5C"/>
<stop offset="1" stop-color="#384153" stop-opacity="0.25"/>
</linearGradient>
<linearGradient id="paint1_linear_573_23973" x1="29.7175" y1="34.7617" x2="83.8876" y2="67.5349" gradientUnits="userSpaceOnUse">
<stop stop-color="white" stop-opacity="0.9"/>
<stop offset="1" stop-color="white" stop-opacity="0.51"/>
</linearGradient>
<linearGradient id="paint2_linear_573_23973" x1="18.5211" y1="28.8973" x2="50.5725" y2="62.9603" gradientUnits="userSpaceOnUse">
<stop stop-color="#7B91A7"/>
<stop offset="1" stop-color="white" stop-opacity="0"/>
</linearGradient>
<radialGradient id="paint3_radial_573_23973" cx="0" cy="0" r="1" gradientUnits="userSpaceOnUse" gradientTransform="translate(61.0717 71.8219) rotate(90) scale(28.1663 18.9726)">
<stop stop-color="#FFD88B"/>
<stop offset="1" stop-color="#FFA900"/>
</radialGradient>
</defs>
</svg>
