<svg width="40" height="40" viewBox="0 0 40 40" fill="none" xmlns="http://www.w3.org/2000/svg">
<path d="M18.6855 29.8584H7.95471" stroke="black" stroke-width="2.48684" stroke-linecap="round" stroke-linejoin="round"/>
<path fill-rule="evenodd" clip-rule="evenodd" d="M25.4187 29.8599C25.4187 33.2449 26.5476 34.3723 29.9311 34.3723C33.3147 34.3723 34.4436 33.2449 34.4436 29.8599C34.4436 26.4748 33.3147 25.3474 29.9311 25.3474C26.5476 25.3474 25.4187 26.4748 25.4187 29.8599Z" stroke="black" stroke-width="2.48684" stroke-linecap="round" stroke-linejoin="round"/>
<path d="M23.7136 12.4692H34.4429" stroke="black" stroke-width="2.48684" stroke-linecap="round" stroke-linejoin="round"/>
<path fill-rule="evenodd" clip-rule="evenodd" d="M16.9805 12.467C16.9805 9.08344 15.8516 7.95459 12.468 7.95459C9.08295 7.95459 7.9541 9.08344 7.9541 12.467C7.9541 15.8521 9.08295 16.9795 12.468 16.9795C15.8516 16.9795 16.9805 15.8521 16.9805 12.467Z" stroke="black" stroke-width="2.48684" stroke-linecap="round" stroke-linejoin="round"/>
</svg>
